<?xml version="1.0" standalone="no"?>
<!DOCTYPE svg PUBLIC "-//W3C//DTD SVG 1.1//EN" "http://www.w3.org/Graphics/SVG/1.1/DTD/svg11.dtd" >
<svg xmlns="http://www.w3.org/2000/svg">
<metadata></metadata>
<defs>
<font id="palatinobold" horiz-adv-x="1024" >
<font-face units-per-em="2048" ascent="1638" descent="-410" />
<missing-glyph horiz-adv-x="512" />
<glyph horiz-adv-x="2048" />
<glyph horiz-adv-x="2048" />
<glyph unicode="&#xd;" horiz-adv-x="2048" />
<glyph unicode=" "  horiz-adv-x="512" />
<glyph unicode="&#x09;" horiz-adv-x="512" />
<glyph unicode="&#xa0;" horiz-adv-x="512" />
<glyph unicode="!" horiz-adv-x="569" d="M129 131q0 65 48.5 114.5t111.5 49.5t111.5 -49t48.5 -115q0 -59 -48.5 -107.5t-111.5 -48.5q-64 0 -112 46t-48 110zM139 1319l205 90h105q0 -90 -15 -197l-102 -761l-78 -43l-10 16l-97 733q-4 32 -8 162z" />
<glyph unicode="&#x22;" horiz-adv-x="823" d="M47 1260q-11 56 32.5 109.5t104.5 53.5t105 -53.5t33 -109.5l-91 -490h-94zM502 1260q-11 56 32.5 109.5t104.5 53.5t104.5 -53.5t32.5 -109.5l-90 -490h-94z" />
<glyph unicode="#" d="M8 440v154h236l32 219h-210v154h233l61 411h154l-61 -411h219l59 411h154l-60 -411h191v-154h-213l-33 -219h193v-154h-215l-66 -440h-154l66 440h-221l-66 -440h-153l65 440h-211zM397 594h219l33 219h-219z" />
<glyph unicode="$" d="M57 944q0 351 396 424l-4 109h102l-4 -109q190 0 338 -68l4 -14q-29 -101 -29 -287h-80q3 116 -14 164q-11 31 -83.5 62.5t-135.5 31.5v-434q80 -13 137.5 -29.5t114 -45.5t91 -69t56 -100.5t21.5 -140.5q0 -188 -116.5 -318t-303.5 -147l4 -206h-105l7 198 q-231 7 -385 82l-7 19q14 127 19 305h82l2 -82q0 -62 22 -99q23 -36 105.5 -75t161.5 -39v491q-98 12 -166.5 34t-122.5 64.5t-80.5 111.5t-26.5 167zM266 1032q0 -82 51 -134.5t136 -61.5v421q-65 0 -126 -62.5t-61 -162.5zM547 82q89 20 145 88t56 158q0 93 -53.5 150.5 t-147.5 68.5v-465z" />
<glyph unicode="%" horiz-adv-x="1820" d="M125 1094q0 150 93.5 245t240.5 95t240.5 -95t93.5 -245q0 -145 -99 -238.5t-235 -93.5t-235 93.5t-99 238.5zM330 1104q0 -156 33.5 -216.5t95.5 -60.5t95.5 60.5t33.5 216.5q0 264 -129 264t-129 -264zM479 -18l750 1480h100l-749 -1480h-101zM1028 332q0 150 93.5 245 t240.5 95t240.5 -95t93.5 -245q0 -145 -99 -238.5t-235 -93.5t-235 93.5t-99 238.5zM1233 342q0 -156 33.5 -216t95.5 -60t95.5 60t33.5 216q0 264 -129 264t-129 -264z" />
<glyph unicode="&#x26;" horiz-adv-x="1705" d="M106 362q0 75 24.5 137.5t71.5 110.5t99.5 83.5t122.5 70.5q-68 161 -68 268q0 52 20.5 98.5t84.5 114.5l71 78q73 78 220 78q100 0 162.5 -58.5t62.5 -158.5q0 -53 -22 -105t-50 -88t-79.5 -79t-83.5 -65t-89 -59q176 -264 422 -464q66 96 66 184q0 87 -41 164h-185 q54 105 60 135l242 -8q158 -5 397 10l6 -18q-32 -73 -41 -144q-144 15 -289 15q36 -186 -127 -390q66 -45 150 -72.5t162 -27.5q15 0 28 2.5t27.5 9.5t21.5 10.5t26 16.5t24 16l34 23l29 -66q-125 -103 -190 -202l-136 -7q-90 -4 -181.5 32.5t-168.5 101.5 q-180 -144 -407 -144q-93 0 -177.5 25t-151.5 73t-107 125.5t-40 173.5zM350 473q0 -146 111 -255t256 -109q107 0 186 61q-275 235 -448 518q-58 -54 -81.5 -100.5t-23.5 -114.5zM543 1110q0 -38 11.5 -84t23.5 -75.5t34 -78.5q79 50 133 118.5t54 148.5q0 57 -31.5 96 t-87.5 39q-137 0 -137 -164z" />
<glyph unicode="'" horiz-adv-x="464" d="M94 1260q-11 56 32.5 109.5t104.5 53.5t105 -53.5t33 -109.5l-90 -490h-95z" />
<glyph unicode="(" horiz-adv-x="681" d="M133 627q0 273 108 481.5t330 372.5l54 -45q-60 -66 -102 -147t-64.5 -155t-35 -172.5t-15 -170.5t-2.5 -179q0 -101 3 -168t15 -157t34.5 -158.5t64.5 -146t102 -146.5l-50 -49q-442 309 -442 840z" />
<glyph unicode=")" horiz-adv-x="681" d="M57 -164q60 69 102 146.5t64.5 146t34.5 158.5t15 157t3 168q0 107 -2.5 179t-15 170.5t-35 172.5t-64.5 155t-102 147l54 45q222 -164 330 -372.5t108 -481.5q0 -530 -443 -840z" />
<glyph unicode="*" horiz-adv-x="909" d="M90 936l8 14q125 29 281 109q-110 75 -283 121l-6 14q63 98 90 158h33q15 -18 48 -56t52.5 -61t50 -56t58.5 -61q30 155 27 291l16 14q87 -33 188 -45l11 -28q-38 -36 -85 -110.5t-83 -149.5q25 5 99 18.5t119 24t70 20.5l13 -6q-9 -82 20 -178l-18 -23q-131 55 -316 70 q12 -19 35 -58t38 -63t40 -58t51 -63l-4 -24q-34 -6 -86 -27.5t-88 -42.5l-31 14q0 161 -22 297q-45 -31 -106.5 -94.5t-100.5 -120.5l-39 17q-13 39 -36.5 80t-43.5 63z" />
<glyph unicode="+" horiz-adv-x="1241" d="M104 434v176h428v424h177v-424h428v-176h-428v-434h-177v434h-428z" />
<glyph unicode="," horiz-adv-x="512" d="M-12 -313q67 133 114.5 285t53.5 239q143 35 274 78l35 -33q-93 -205 -301 -535l-146 -61z" />
<glyph unicode="-" horiz-adv-x="681" d="M33 416q9 26 25 72.5t27.5 80t16.5 56.5h529l18 -21q-51 -113 -65 -205h-535z" />
<glyph unicode="." horiz-adv-x="512" d="M96 131q0 65 48.5 114.5t111.5 49.5t111.5 -49t48.5 -115q0 -59 -48 -107.5t-112 -48.5t-112 46t-48 110z" />
<glyph unicode="/" horiz-adv-x="606" d="M-18 -35l458 1510h185l-459 -1510h-184z" />
<glyph unicode="0" d="M68 639q0 77 4.5 143t17 141t33.5 135t57.5 116.5t84.5 94t117.5 60.5t154.5 23q78 0 141 -19.5t106.5 -52t75.5 -82.5t50.5 -101.5t29.5 -118.5t14.5 -125.5t3.5 -129.5q0 -80 -3 -144.5t-14 -146.5t-30 -144.5t-54 -125.5t-82 -104t-118 -67t-159 -26q-83 0 -149.5 22 t-110.5 57t-76.5 90.5t-50 109.5t-28 128t-13 132.5t-2.5 134.5zM313 766q0 -236 23 -408q4 -31 7 -51.5t10.5 -54t16 -56t23 -49t32.5 -42t44 -26.5t57 -11q50 0 87.5 36t58.5 99.5t31 140.5t10 168q0 223 -23 420q-4 35 -7 54.5t-10.5 58t-15.5 61.5t-23 53.5t-32.5 47.5 t-44 29.5t-57.5 12.5q-34 0 -62.5 -13.5t-47 -37t-33 -55t-22 -67.5t-13.5 -74.5t-7 -76t-2 -72t0 -62.5v-25z" />
<glyph unicode="1" d="M72 1165q221 52 612 207l25 -20q-21 -343 -21 -521v-659q0 -89 117 -96l127 -6v-76q-94 1 -206.5 3.5t-156.5 2.5q-38 0 -161 -2.5t-254 -3.5v76l147 6q117 7 117 96v907q0 64 -10 74q-8 8 -21 2l-287 -133q-31 75 -28 143z" />
<glyph unicode="2" d="M51 -6v104l342 340q240 236 240 461q0 112 -58 175t-169 63q-61 0 -121 -33.5t-72 -79.5l-37 -139l-76 6l37 338q151 123 322 123q197 0 320.5 -98t123.5 -265q0 -103 -61 -209.5t-150 -195.5l-356 -351l4 -16l618 23l9 -11q-12 -113 -2 -235q-88 1 -241.5 3.5 t-215.5 2.5q-64 0 -218.5 -2.5t-238.5 -3.5z" />
<glyph unicode="3" d="M45 319l70 19q52 -125 127.5 -191.5t199.5 -66.5q110 0 176 82.5t66 187.5q0 117 -69.5 186.5t-186.5 69.5q-72 0 -127 -16l-14 10l39 152h71q102 0 167 56.5t65 164.5q0 79 -56 128.5t-153 49.5q-56 0 -100 -19t-71.5 -50.5t-44 -65.5t-24.5 -72h-71l63 316 q151 92 309 92q164 0 269.5 -80.5t105.5 -206.5q0 -99 -62.5 -175.5t-160.5 -121.5v-4q137 -9 221 -88t84 -213q0 -113 -46.5 -200.5t-139.5 -162.5q-79 -64 -181.5 -99.5t-205.5 -35.5q-163 0 -269 49q-5 43 -13 93t-21.5 123.5t-16.5 88.5z" />
<glyph unicode="4" d="M25 418q162 410 501 903l250 55l15 -24q-13 -427 -13 -590v-256h180l3 -4v-164h-183v-111q0 -74 32 -111.5t85 -39.5l74 -6v-76q-55 1 -157.5 3.5t-152.5 2.5q-42 0 -155 -2.5t-213 -3.5v76l131 6q53 2 85 39.5t32 111.5v111h-500zM168 506h371v674h-4 q-19 -33 -72 -115.5t-78 -130.5l-127 -238q-19 -35 -49 -101.5t-41 -88.5z" />
<glyph unicode="5" d="M86 285l61 37q37 -99 122.5 -168.5t185.5 -69.5q127 0 198.5 73.5t71.5 200.5q0 128 -71 207.5t-197 79.5q-146 0 -234 -82l-39 23q1 13 7 108.5t6 145.5v209q0 93 -13 278l15 16q312 -12 348 -12q54 0 114 2t134 5.5t114 4.5l9 -16q-20 -71 -13 -201l-12 -22 q-33 1 -92.5 2.5t-108 2.5t-92.5 1q-1 0 -295 -6l-8 -318q78 36 136.5 53t129.5 17q175 0 289.5 -95t114.5 -267q0 -233 -179 -383q-82 -69 -186.5 -107.5t-210.5 -38.5q-150 0 -241 45q-13 72 -64 275z" />
<glyph unicode="6" d="M76 561q0 199 76 364t229 283q100 77 200.5 110.5t229.5 33.5l80 -56l-31 -32q-123 11 -238 -43t-186 -174q-75 -125 -92 -369l4 -4q59 77 129 120.5t168 43.5q79 0 141 -31.5t99.5 -85.5t56.5 -121t19 -143q0 -101 -29.5 -189.5t-84 -156t-139 -107t-188.5 -39.5 q-117 0 -203 42t-138.5 121.5t-77.5 187t-25 245.5zM338 414q0 -95 19.5 -170.5t66.5 -125.5t115 -50q52 0 89.5 26.5t56 70.5t26.5 89t8 94t-9.5 99t-30 101t-61 82.5t-94.5 31.5q-186 0 -186 -248z" />
<glyph unicode="7" d="M94 1327l21 16q68 -1 191 -4.5t224 -5.5t191 -2q1 0 289 6v-92q-94 -146 -191 -352l-225 -459q-37 -77 -94 -220t-82 -220q-117 6 -119 6q-19 0 -57.5 -3t-48.5 -3l-13 22l615 1061l-9 13h-460q-74 0 -97.5 -20.5t-31.5 -86.5l-17 -131h-80q4 297 -6 475z" />
<glyph unicode="8" d="M70 324q0 108 68 197t171 134q-205 110 -205 316q0 172 115 276.5t320 104.5q152 0 254 -76.5t102 -224.5q0 -157 -193 -281q46 -16 87.5 -43t80.5 -68.5t62.5 -104t23.5 -136.5q0 -131 -64 -235.5t-172.5 -161t-238.5 -56.5q-103 0 -184.5 31t-129.5 83t-72.5 114.5 t-24.5 130.5zM252 344q0 -114 73 -193t187 -79q95 0 157 68.5t62 164.5q0 98 -55 155.5t-158 102.5l-125 55q-74 -62 -107.5 -123.5t-33.5 -150.5zM315 1063q0 -44 16 -79.5t47.5 -61.5t61 -43t72.5 -35l90 -39q121 95 121 217q0 99 -56.5 161t-154.5 62q-87 0 -142 -48 t-55 -134z" />
<glyph unicode="9" d="M63 872q0 224 120.5 352t318.5 128q100 0 177.5 -29.5t127.5 -79.5t82 -122t45.5 -151t13.5 -173q0 -143 -36.5 -274t-106 -240t-180.5 -188t-252 -113q-55 -13 -158 -17l-78 60l19 36q139 -25 301 70q77 51 131 150q71 129 90 364l-129 -113q-34 -30 -69.5 -39.5 t-88.5 -9.5q-68 0 -123.5 20.5t-93 56t-63 85t-37 106t-11.5 121.5zM305 977q0 -56 9.5 -107t31 -100t64.5 -78.5t102 -29.5q176 0 176 239q0 36 -2.5 70t-9 75.5t-20.5 75t-34.5 62.5t-52.5 45t-73 16q-54 0 -93 -24t-59.5 -64.5t-29.5 -85t-9 -94.5z" />
<glyph unicode=":" horiz-adv-x="512" d="M96 131q0 65 48.5 114.5t111.5 49.5t111.5 -49t48.5 -115q0 -59 -48 -107.5t-112 -48.5t-112 46t-48 110zM96 766q0 65 48.5 114.5t111.5 49.5t111.5 -49t48.5 -115q0 -60 -48 -108t-112 -48t-112 46t-48 110z" />
<glyph unicode=";" horiz-adv-x="512" d="M-12 -313q67 133 114.5 285t53.5 239q143 35 274 78l35 -33q-93 -205 -301 -535l-146 -61zM143 766q0 65 48.5 114.5t111.5 49.5t111.5 -49t48.5 -115q0 -60 -48.5 -108t-111.5 -48q-64 0 -112 46t-48 110z" />
<glyph unicode="&#x3c;" horiz-adv-x="1241" d="M100 440v152l1043 471v-172l-815 -375l815 -375v-172z" />
<glyph unicode="=" horiz-adv-x="1241" d="M104 233v177h1033v-177h-1033zM104 635v176h1033v-176h-1033z" />
<glyph unicode="&#x3e;" horiz-adv-x="1241" d="M100 -31v172l815 375l-815 375v172l1043 -471v-152z" />
<glyph unicode="?" horiz-adv-x="909" d="M88 1036q61 183 66 273q133 98 305 98q73 0 140 -19t122 -55.5t88 -98.5t33 -140q0 -67 -16.5 -116.5t-46 -85.5t-83.5 -81l-157 -131q-53 -44 -83 -81.5t-39 -69.5t-5 -57t18 -54l2 -4l-70 -29q-53 61 -53 160q0 55 40 121.5t116 154.5q102 119 102 215q0 76 -55.5 125 t-132.5 49q-59 0 -102.5 -12.5t-53.5 -34.5l-63 -145zM238 131q0 65 48 114.5t111 49.5t111.5 -49t48.5 -115q0 -59 -48.5 -107.5t-111.5 -48.5q-64 0 -111.5 46t-47.5 110z" />
<glyph unicode="@" horiz-adv-x="1529" d="M86 670q0 201 92.5 367t257 262t365.5 96q138 0 259.5 -47.5t204 -126t130 -181.5t47.5 -213q0 -227 -139 -378q-61 -66 -149.5 -117t-164.5 -51q-67 0 -103.5 49t-41.5 119q-60 -81 -110 -118.5t-128 -37.5q-123 0 -190.5 79.5t-67.5 207.5q0 108 57.5 211.5t155.5 169 t207 65.5q67 0 111 -37t55 -102h4l31 123h192l-151 -561q-27 -101 34 -101q44 0 94.5 45t88.5 96q51 69 80.5 158.5t29.5 175.5q0 84 -35 165t-99.5 146.5t-166 105.5t-223.5 40q-172 0 -311.5 -75.5t-220 -212t-80.5 -308.5q0 -179 86 -315.5t230 -207.5t321 -71 q139 0 260.5 71.5t201.5 192.5h132q-88 -171 -256 -275t-361 -104q-148 0 -282 51.5t-232.5 141.5t-156.5 221t-58 281zM543 512q0 -28 4 -53.5t14.5 -51t31.5 -40.5t52 -15q30 0 60 19t54 50t41 59.5t31 58.5q28 61 47 141t19 143q0 54 -23.5 98t-72.5 44q-55 0 -105.5 -53 t-82.5 -127.5t-51 -148.5t-19 -124z" />
<glyph unicode="A" horiz-adv-x="1593" d="M49 -6v76l62 6q65 7 114 123l371 897l53 141l33 84l31 84h145l531 -1239q19 -42 43 -63t69 -27l49 -6v-76q-60 1 -167 3.5t-150 2.5q-44 0 -152 -2.5t-166 -3.5v76l109 6q27 2 37 32q4 11 4 24q0 24 -12 56l-92 234h-515l-86 -229q-10 -28 -10 -49q0 -20 8 -35 q18 -31 52 -33l102 -6v-76q-42 1 -120.5 3.5t-110.5 2.5t-111 -2.5t-121 -3.5zM496 537h417l-213 520z" />
<glyph unicode="B" horiz-adv-x="1366" d="M80 1319v76q58 -1 166.5 -3.5t152.5 -2.5q82 0 226.5 2.5t189.5 3.5h11q378 0 378 -277q0 -51 -13 -93t-40.5 -75t-57 -57.5t-76.5 -47t-84 -36.5t-93 -33v-4q204 -8 307.5 -87.5t103.5 -252.5q-1 -192 -161 -318q-153 -121 -386 -120h-22q-276 6 -289 6q-18 0 -246 -6 v47l66 37q24 13 32.5 40t8.5 77v917q0 137 -14 166q-15 30 -84 35zM543 115q46 -9 110 -9q291 0 291 310q0 163 -86 230t-254 67h-61v-598zM543 819h61q147 0 222 56.5t75 197.5q0 116 -58.5 167.5t-174.5 51.5q-68 0 -125 -8v-465z" />
<glyph unicode="C" horiz-adv-x="1478" d="M90 717q0 138 43.5 254t119.5 198.5t179.5 140t224 85.5t252.5 28q140 0 252 -19.5t250 -76.5l12 -22q-20 -72 -47 -314h-80l-10 176q-137 142 -368 142q-166 0 -285 -74.5t-177.5 -201t-58.5 -290.5q0 -189 69.5 -333.5t207.5 -228t327 -83.5q91 0 202.5 29.5 t189.5 75.5l24 -25l-45 -100q-185 -113 -471 -113q-176 0 -324 49.5t-256.5 142.5t-169.5 236.5t-61 323.5z" />
<glyph unicode="D" horiz-adv-x="1705" d="M72 1319v76q58 -1 166.5 -3.5t152.5 -2.5q61 0 246 3t281 3q341 0 516.5 -152t175.5 -487q0 -145 -46.5 -270t-127.5 -215.5t-189 -154.5q-109 -64 -233 -94q-117 -28 -240 -28h-16q-34 1 -96 2.5t-113 2.5t-96 1q-60 0 -177.5 -3t-136.5 -3v47l66 37q24 13 32.5 40 t8.5 77v917q0 135 -15 166q-15 30 -84 35zM535 117q65 -11 176 -11q304 0 448 150.5t144 460.5q0 307 -148 441t-496 134q-67 0 -124 -8v-1167z" />
<glyph unicode="E" horiz-adv-x="1251" d="M80 1319v76q58 -1 166.5 -3.5t152.5 -2.5q98 0 449 6q48 1 90 1q127 0 209 -7l12 -15l-29 -291h-73l-17 154q-3 21 -74.5 30t-160.5 9q-133 0 -262 -6v-492q47 -4 137 -4h135q61 0 87.5 8t29.5 35l12 117h82q-1 -25 -2.5 -69t-2.5 -80.5t-1 -69.5t1 -69.5t2.5 -81.5 t2.5 -70h-82l-12 102q-4 41 -32.5 58.5t-84.5 17.5h-135q-66 0 -137 -6v-547q129 -6 262 -6q74 0 160.5 11t89.5 23l47 193h80l-23 -324l-10 -16q-126 -9 -291 -9q-99 0 -213 3q-28 1 -79.5 2.5t-93.5 2.5t-79 1q-18 0 -246 -6v47l66 37q24 13 32.5 40t8.5 77v917 q0 137 -14 166q-15 30 -84 35z" />
<glyph unicode="F" horiz-adv-x="1138" d="M57 -6v82l76 6q72 5 84 29q14 29 14 165v836q0 137 -14 166q-15 30 -84 35l-76 6v76q57 -1 166.5 -3.5t153.5 -2.5q65 0 416 6q48 1 90 1q127 0 209 -7l12 -15l-29 -291h-74l-16 154q-3 21 -74.5 30t-160.5 9q-101 0 -230 -6v-498q47 -4 137 -4h105q61 0 87.5 8t29.5 35 l12 109h82q-6 -198 -6 -211q0 -33 1 -70t2.5 -82t2.5 -70h-82l-12 103q-4 41 -32.5 58.5t-84.5 17.5h-105q-55 0 -137 -7v-383q0 -134 15 -165q12 -24 83 -29l97 -6v-82q-312 6 -338 6q-68 0 -320 -6z" />
<glyph unicode="G" horiz-adv-x="1705" d="M96 717q0 138 43.5 254t119.5 198.5t179.5 140t224 85.5t252.5 28q159 0 294 -20.5t270 -75.5l12 -22q-20 -72 -47 -314h-80l-10 176q-58 68 -177.5 105t-252.5 37q-166 0 -285 -74.5t-177.5 -201t-58.5 -290.5q0 -135 35 -253.5t101.5 -210.5t173.5 -145.5t241 -53.5 q127 0 260 51v270q0 43 -29.5 58.5t-86.5 17.5l-109 4v84q300 -6 301 -6q44 0 94 1t111 2.5t94 2.5v-69q-54 -11 -69 -23.5t-15 -50.5v-334q-312 -123 -598 -123q-176 0 -324 49.5t-256.5 142.5t-169.5 236.5t-61 323.5z" />
<glyph unicode="H" horiz-adv-x="1705" d="M74 -6v82l76 6q71 5 83 29q15 31 15 165v836q0 135 -15 166q-12 24 -83 29l-76 6v82q252 -6 319 -6q66 0 318 6v-82l-76 -6q-72 -5 -84 -29q-14 -29 -14 -166v-324q62 -4 165 -4h299q104 0 166 4v324q0 137 -14 166q-12 24 -84 29l-76 6v82q252 -6 320 -6q65 0 317 6v-82 l-76 -6q-72 -5 -84 -29q-14 -29 -14 -166v-836q0 -136 14 -165q12 -24 84 -29l76 -6v-82q-252 6 -317 6q-68 0 -320 -6v82l76 6q72 5 84 29q14 29 14 165v390q-62 4 -166 4h-299q-103 0 -165 -4v-390q0 -136 14 -165q12 -24 84 -29l76 -6v-82q-252 6 -318 6q-67 0 -319 -6z " />
<glyph unicode="I" horiz-adv-x="796" d="M80 -6v82l76 6q72 5 84 29q14 29 14 165v836q0 137 -14 166q-12 24 -84 29l-76 6v82q252 -6 319 -6q66 0 318 6v-82l-76 -6q-72 -5 -84 -29q-14 -29 -14 -166v-836q0 -136 14 -165q12 -24 84 -29l76 -6v-82q-252 6 -318 6q-67 0 -319 -6z" />
<glyph unicode="J" horiz-adv-x="796" d="M-23 -244l23 13q3 -3 30 -23t37 -26t32 -14.5t42 -8.5q38 0 62 21t34.5 63.5t13.5 81.5t3 100v1149q0 137 -14 166q-12 24 -84 29l-76 6v82q252 -6 319 -6q66 0 318 6v-82l-76 -6q-72 -5 -84 -29q-14 -29 -14 -166v-831q0 -79 -0.5 -112.5t-6.5 -94.5t-17.5 -98.5 t-34.5 -87.5t-58 -99q-65 -91 -173.5 -158t-211.5 -67q-31 0 -64 10v182z" />
<glyph unicode="K" horiz-adv-x="1593" d="M80 -6v82l76 6q72 5 84 29q14 29 14 165v836q0 137 -14 166q-12 24 -84 29l-76 6v82q252 -6 319 -6q66 0 318 6v-82l-76 -6q-72 -5 -84 -29q-14 -29 -14 -166v-379q0 -12 18 -12l385 377q19 19 160 172q33 36 33 73v52q183 -6 186 -6t186 6v-80q-61 -6 -87 -9.5 t-68 -18.5t-70 -42l-455 -424l545 -641q86 -102 187 -102v-84q-24 1 -65.5 2.5t-76 2.5t-65.5 1t-66 -1t-77.5 -2.5t-65.5 -2.5l-426 510q-102 123 -139 151q-9 7 -17 11q-11 1 -16.5 -5t-5.5 -14v-371q0 -136 14 -165q12 -24 84 -29l76 -6v-82q-252 6 -318 6q-67 0 -319 -6 z" />
<glyph unicode="L" horiz-adv-x="1251" d="M80 1313v82q252 -6 319 -6q66 0 318 6v-82l-76 -6q-72 -5 -84 -29q-14 -29 -14 -166v-993q129 -6 262 -6q74 0 160.5 11t89.5 23l47 209h80l-23 -340l-10 -16q-126 -9 -291 -9q-99 0 -213 3q-28 1 -79.5 2.5t-93.5 2.5t-79 1q-18 0 -246 -6v47l66 37q24 13 32.5 40 t8.5 77v917q0 137 -14 166q-12 24 -84 29z" />
<glyph unicode="M" horiz-adv-x="2048" d="M66 -6v76l75 6q69 5 84 35q15 31 15 165v836q0 135 -15 166q-15 30 -84 35l-75 6v76q27 -1 77 -2.5t91 -2.5t77 -1t77 1t91.5 2.5t77.5 2.5q4 -9 154 -330l323 -676l375 774q16 34 33.5 73.5t37 87.5t29.5 71q43 -1 123.5 -3.5t112.5 -2.5q33 0 113 2.5t124 3.5v-76 l-75 -6q-69 -5 -84 -35q-15 -31 -15 -166v-836q0 -134 15 -165q12 -24 84 -29l75 -6v-82q-252 6 -317 6q-67 0 -319 -6v82l75 6q72 5 84 29q15 31 15 165v844h-4l-418 -870q-81 -166 -123 -270h-70q-19 53 -74 170l-466 972h-5v-846q0 -134 15 -165q15 -30 84 -35l76 -6v-76 l-234 6q-1 0 -235 -6z" />
<glyph unicode="N" horiz-adv-x="1705" d="M72 -6v76l75 6q69 5 84 35q15 31 15 165v836q0 135 -15 166q-15 30 -84 35l-75 6v76q27 -1 77 -2.5t91 -2.5t77 -1q1 0 172 6q9 -12 88 -117t123 -156l639 -745v735q0 137 -14 166q-15 30 -84 35l-76 6v76q234 -6 236 -6q35 0 73.5 1t86 2.5t73.5 2.5v-76l-75 -6 q-69 -5 -84 -35q-15 -31 -15 -166v-930q0 -24 6 -207l-14 -8l-168 27q-156 175 -250 285l-663 798h-4v-801q0 -136 14 -165q15 -30 84 -35l76 -6v-76q-26 1 -73.5 2.5t-86.5 2.5t-74 1q-1 0 -235 -6z" />
<glyph unicode="O" horiz-adv-x="1705" d="M96 682q0 237 97 405.5t271 252t410 83.5q348 0 543 -185t195 -531q0 -237 -97 -405.5t-271 -252.5t-410 -84q-348 0 -543 185.5t-195 531.5zM403 717q0 -129 27.5 -242.5t79.5 -202.5t135.5 -140.5t188.5 -51.5q111 0 195 32.5t135.5 86t84 132t44.5 160t12 179.5 q0 129 -27.5 243t-79.5 203t-135.5 141t-188.5 52q-111 0 -195 -33t-135.5 -86.5t-84 -132t-44.5 -160.5t-12 -180z" />
<glyph unicode="P" horiz-adv-x="1251" d="M80 -6v82l76 6q72 5 84 29q14 29 14 165v836q0 137 -14 166q-15 30 -84 35l-76 6v76q58 -1 166.5 -3.5t152.5 -2.5q62 0 131 1t154 2.5t131 2.5h15q58 -1 108 -7q56 -8 108.5 -28.5t89.5 -54t59 -88t22 -125.5q0 -199 -136 -319t-338 -120q-22 0 -62.5 7.5t-43.5 7.5 l-35 71l21 21q1 0 35 -6t51 -6q102 0 157.5 76t55.5 182q0 286 -248 286q-94 0 -131 -18v-998q0 -136 14 -165q12 -24 84 -29l96 -6v-82q-312 6 -338 6q-67 0 -319 -6z" />
<glyph unicode="Q" horiz-adv-x="1705" d="M96 682q0 237 97 405.5t271 252t410 83.5q348 0 543 -185t195 -531q0 -237 -97 -405.5t-271 -252.5t-410 -84q-50 0 -68 2l-4 -4q136 -25 209 -49l246 -86q129 -45 229 -45q15 0 37.5 5.5t35.5 10t44.5 17t35.5 14.5v-76l-210 -131q-66 0 -148 21l-407 110 q-134 37 -208 37h-14q-58 -3 -180 -90l-22 63q95 77 171 127t152 78v4q-303 24 -470 206t-167 503zM403 717q0 -129 27.5 -242.5t79.5 -202.5t135.5 -140.5t188.5 -51.5q111 0 195 32.5t135.5 86t84 132t44.5 160t12 179.5q0 129 -27.5 243t-79.5 203t-135.5 141t-188.5 52 q-111 0 -195 -33t-135.5 -86.5t-84 -132t-44.5 -160.5t-12 -180z" />
<glyph unicode="R" horiz-adv-x="1478" d="M80 -6v82l76 6q72 5 84 29q14 29 14 165v836q0 137 -14 166q-15 30 -84 35l-76 6v76q46 -1 165.5 -3.5t178.5 -2.5q62 0 131 1t154 2.5t131 2.5h15q57 -1 107 -7q56 -8 109 -28.5t89.5 -54t58.5 -88t22 -125.5q0 -128 -84 -221t-221 -142l371 -561q21 -34 59 -64 q19 -15 84 -28v-82q-198 6 -199 6t-184 -6l-459 711l15 36q18 -2 36 -2q119 0 199 71q92 81 92 224q0 123 -76 190.5t-200 67.5q-94 0 -131 -18v-998q0 -136 14 -165q12 -24 84 -29l76 -6v-82q-252 6 -318 6q-67 0 -319 -6z" />
<glyph unicode="S" horiz-adv-x="1251" d="M117 59q30 145 30 355h82l15 -181q39 -67 137.5 -112t183.5 -45q138 0 230 71t92 199q0 140 -170 191l-287 86q-135 40 -217 130.5t-82 217.5q0 96 28 172.5t76.5 128.5t117.5 86t148.5 49.5t170.5 15.5q206 0 381 -69l10 -25q-29 -96 -29 -291h-84l-12 168 q-45 51 -121.5 82t-150.5 31q-136 0 -208.5 -69.5t-72.5 -178.5q0 -143 217 -199l234 -61q145 -38 227 -127.5t82 -224.5q0 -101 -32.5 -184.5t-89 -140t-133.5 -95.5t-163.5 -56.5t-181.5 -17.5q-233 0 -428 94z" />
<glyph unicode="T" horiz-adv-x="1366" d="M35 1384l12 11q73 -1 202.5 -3t235 -2.5t197.5 -0.5q93 0 199 1t235.5 2.5t202.5 2.5l12 -11q-20 -122 -26 -325h-82l-11 141q-3 30 -18 49t-127 19h-240v-992q0 -134 15 -165q12 -24 84 -29l75 -6v-82q-252 6 -317 6q-67 0 -319 -6v82l75 6q72 5 84 29q15 31 15 165v992 h-240q-112 0 -127 -19t-18 -49l-11 -141h-82q-6 203 -26 325z" />
<glyph unicode="U" horiz-adv-x="1593" d="M53 1319v76q252 -6 320 -6q65 0 317 6v-76l-76 -6q-69 -5 -84 -35q-14 -29 -14 -166v-508q0 -49 1 -83.5t4 -76t8.5 -70t15 -61t24 -54t34.5 -43.5t46.5 -36t60.5 -25.5t77 -16.5t94 -5q72 0 128.5 12t96.5 32t68.5 54t45.5 71t26.5 90.5t12.5 104.5t3 121v494 q0 135 -15 166q-15 30 -84 35l-76 6v76q234 -6 236 -6q35 0 73.5 1t86 2.5t73.5 2.5v-76l-75 -6q-69 -5 -84 -35q-15 -31 -15 -166v-598q0 -549 -569 -549q-282 0 -434 109t-152 288v750q0 137 -14 166q-15 30 -84 35z" />
<glyph unicode="V" horiz-adv-x="1593" d="M41 1319v76q58 -1 166.5 -3.5t152.5 -2.5q42 0 152.5 2.5t183.5 3.5v-76l-102 -6q-23 -1 -38 -13t-15 -26q0 -40 43 -148l321 -792l291 723q64 157 64 200q0 26 -21.5 40t-54.5 16l-94 6v76q43 -1 124 -3.5t113 -2.5t112.5 2.5t123.5 3.5v-76l-66 -6q-32 -3 -54 -26 t-42 -70l-426 -1020q-16 -38 -42 -108t-36 -95h-156l-489 1171q-36 81 -58 108q-30 37 -69 40z" />
<glyph unicode="W" horiz-adv-x="2048" d="M35 1319v76q58 -1 166.5 -3.5t152.5 -2.5q36 0 81.5 1t104 2.5t89.5 2.5v-76l-86 -6q-21 -2 -41.5 -16t-20.5 -31q0 -24 6 -58l166 -778h4l306 721q17 42 51.5 127t52.5 127h92q54 -154 101 -272l278 -697h4l197 768q8 33 8 68q0 18 -21.5 28.5t-50.5 12.5l-94 6v76 q38 -1 114 -3.5t107 -2.5q30 0 105.5 2.5t115.5 3.5v-76l-67 -6q-48 -5 -88 -142l-250 -884q-16 -57 -40.5 -168.5t-27.5 -124.5h-149q-10 26 -36 100t-42 115l-305 768l-318 -727q-22 -49 -55 -142t-41 -114h-143l-285 1233q-19 80 -76 86z" />
<glyph unicode="X" horiz-adv-x="1366" d="M35 0v70l63 6q20 1 39.5 13t28.5 24l407 534l-192 340q-46 82 -98 153t-82 101q-21 21 -47.5 28.5t-47.5 5t-51 -10.5l-10 84l375 75q46 -33 78.5 -76.5t70.5 -109.5l195 -346l338 498h227v-70l-57 -6q-9 -1 -18 -3.5t-15 -5t-13.5 -8.5t-11.5 -9t-11 -11t-9.5 -11 t-10 -13t-9.5 -13l-349 -459l326 -563q2 -3 18.5 -32.5t23.5 -39.5t22.5 -29.5t31 -28.5t33.5 -11l51 -6v-76q-23 1 -61.5 2.5t-71 2.5t-61.5 1t-62 -1t-73 -2.5t-62 -2.5l-305 545l-287 -412q-13 -18 -25 -39t-26.5 -47.5t-22.5 -40.5h-239z" />
<glyph unicode="Y" horiz-adv-x="1366" d="M31 1274v76l325 73q77 -43 129.5 -110.5t104.5 -167.5l219 -416l385 660h158v-39l-361 -535q-49 -72 -108 -205v-334q0 -136 14 -165q12 -24 84 -29l76 -6v-82q-252 6 -318 6q-67 0 -319 -6v82l76 6q72 5 84 29q14 29 14 165v285q-46 104 -90 174l-207 334 q-41 63 -107 137q-35 38 -70.5 53t-88.5 15z" />
<glyph unicode="Z" horiz-adv-x="1366" d="M49 -6v78q125 157 213 284l627 914h-455q-77 0 -110.5 -7t-47.5 -25t-20 -62l-16 -113h-76v332q103 -1 291.5 -3t265.5 -2.5t264.5 2t290.5 3.5v-72q-93 -111 -170 -225l-666 -981h566q83 0 120 20t45 60l31 159h82q-30 -167 -33 -362q-299 6 -587 6q-252 0 -615 -6z" />
<glyph unicode="[" horiz-adv-x="681" d="M150 -213q1 71 7.5 377t6.5 471q0 164 -6.5 466.5t-7.5 373.5q61 -1 137.5 -4t107.5 -3q37 0 106 3t95 4v-78h-100q-47 0 -87 -22.5t-40 -59.5q0 -55 -3.5 -302t-3.5 -382t3.5 -382t3.5 -302q0 -37 40 -59.5t87 -22.5h100v-78q-18 0 -90 3t-111 3q-32 0 -109.5 -2.5 t-135.5 -3.5z" />
<glyph unicode="\" horiz-adv-x="1241" d="M147 1475h185l762 -1475h-185z" />
<glyph unicode="]" horiz-adv-x="681" d="M86 -135h100q47 0 87 22.5t40 59.5q6 681 6 684t-6 684q0 37 -40 59.5t-87 22.5h-100v78q26 -1 95 -4t106 -3q31 0 107.5 3t137.5 4q-1 -71 -7.5 -373.5t-6.5 -466.5q0 -165 6.5 -471t7.5 -377q-58 1 -135.5 3.5t-109.5 2.5q-39 0 -111 -3t-90 -3v78z" />
<glyph unicode="^" horiz-adv-x="1241" d="M106 563l422 826h185l422 -826h-195l-319 602l-320 -602h-195z" />
<glyph unicode="_" d="M0 -154h1024v-102h-1024v102z" />
<glyph unicode="`" horiz-adv-x="681" d="M37 1325q0 38 23.5 64t64.5 26q42 0 70.5 -18t64.5 -58l264 -303h-114l-269 166q-3 2 -23.5 14.5t-26 16.5t-20 16t-19.5 21t-10 24t-5 31z" />
<glyph unicode="a" d="M82 215q0 67 22.5 125.5t71.5 91.5q89 60 256 94l180 37q0 242 -213 242q-31 0 -70 -8.5t-44 -20.5l-45 -102l-62 14v141l109 66q116 70 237 70q70 0 130 -16.5t108 -50.5q50 -34 76 -94q25 -55 24 -127v-11q-1 -28 -2.5 -79.5t-2.5 -93.5t-1 -79q0 -2 6 -254 q2 -40 14.5 -60.5t41.5 -23.5l61 -6v-76q-16 0 -80.5 3t-99.5 3q-33 0 -98.5 -2.5t-88.5 -3.5l-10 16l10 127l-190 -147q-31 -25 -113 -25q-110 0 -168.5 68.5t-58.5 181.5zM332 266q0 -61 30.5 -92t79.5 -31q43 0 96.5 31t73.5 62v241l-92 -24q-42 -12 -62.5 -19t-49.5 -22 t-42.5 -32t-23.5 -46t-10 -68z" />
<glyph unicode="b" horiz-adv-x="1251" d="M20 1313v73q158 17 248 44l148 45l16 -13v-678l125 101q48 39 95 59.5t118 20.5q161 0 265 -109t104 -272q0 -147 -66 -279q-33 -66 -87 -114t-134 -101q-5 -3 -36 -24t-40 -26.5l-36 -22t-42.5 -22t-39.5 -15t-46 -12.5t-45 -3q-145 0 -278 76l-80 -66l-45 17 q18 141 18 340v831q0 91 -8.5 116t-44.5 28zM432 217q35 -54 89.5 -83.5t119.5 -29.5q68 0 117 33.5t74.5 89t37 114t11.5 122.5q0 135 -63.5 226t-192.5 91q-57 0 -111.5 -28t-81.5 -74v-461z" />
<glyph unicode="c" horiz-adv-x="909" d="M76 451q0 65 6 106.5t29 95.5t75.5 104t137.5 101l106 64q43 26 89.5 34.5t113.5 8.5q80 0 192 -41l15 -27q-25 -127 -41 -289h-74l-14 123q-4 40 -62 64t-114 24q-205 0 -205 -289q0 -83 18 -155t56 -133t104 -96t154 -35q79 0 167 39l19 -21l-43 -94q-124 -70 -266 -70 q-117 0 -206.5 36t-145 101.5t-83.5 153t-28 195.5z" />
<glyph unicode="d" horiz-adv-x="1251" d="M86 420q0 153 40 243.5t132 151.5l148 96q82 54 176 54q15 0 27.5 -0.5t26.5 -3t21.5 -3.5t24 -6t20 -6t24.5 -8l24 -8l41 -17v250q0 90 -9 115.5t-45 28.5l-108 6v73q158 17 248 44l147 45l16 -13v-1257q0 -66 9 -96t65 -35l68 -4v-76q-24 1 -109.5 3.5t-118.5 2.5 q-18 0 -73.5 -2.5t-89.5 -3.5l-11 16l11 154l-213 -174q-29 -25 -113 -25q-72 0 -134.5 25.5t-106.5 69.5t-75.5 102.5t-47 124t-15.5 133.5zM344 510q0 -58 12 -115.5t38 -112t74 -88.5t112 -34q79 0 145 46.5t66 121.5v377q-39 57 -100.5 93t-127.5 36q-54 0 -94.5 -19 t-64 -48.5t-37.5 -74t-18.5 -87t-4.5 -95.5z" />
<glyph unicode="e" d="M86 438q0 71 6.5 124t26 110t60 104t102.5 84l96 58q77 47 168 47q177 0 288 -93.5t111 -267.5v-106q-147 -41 -323 -41h-269q0 -154 85.5 -250t240.5 -96q101 0 221 71l25 -30l-45 -99q-92 -49 -164.5 -68.5t-163.5 -19.5q-222 0 -343.5 125.5t-121.5 347.5zM340 565 q171 -6 172 -6t172 6q0 43 -2.5 77t-13 75t-27.5 68.5t-49 46t-76 18.5q-89 0 -132.5 -70t-43.5 -215z" />
<glyph unicode="f" horiz-adv-x="796" d="M70 -6v76l84 4q67 3 77 35q9 30 9 96v557l-162 -10v49q99 47 162 92v88q0 87 7.5 128.5t29.5 74.5t75 78l152 127q66 55 105.5 70.5t86.5 15.5q37 0 84 -13v-198l-32 -15q-76 49 -130 49q-37 0 -62 -10.5t-38 -24t-20 -42.5t-8 -50t-1 -61v-221q105 0 269 8l8 -16 l-23 -119h-254v-557q0 -66 9 -96q4 -14 32 -23.5t62 -11.5l92 -4v-76q-54 1 -161.5 3.5t-164.5 2.5q-51 0 -150.5 -2.5t-137.5 -3.5z" />
<glyph unicode="g" horiz-adv-x="1138" d="M53 -244q0 75 53 117l166 98q-139 29 -139 129q0 75 35 107l145 110q-97 26 -157 102.5t-60 174.5q0 168 137 278q114 93 312 93q87 0 170.5 -22t136.5 -66q29 -1 60 -1q82 0 182 9l-11 -131l-157 8q10 -43 10 -119q0 -82 -39.5 -149.5t-103 -109.5t-140 -64.5 t-155.5 -22.5q-44 0 -90 4q-60 -33 -60 -82q0 -59 94 -59q60 1 187.5 4.5t177.5 3.5q144 0 216.5 -63.5t72.5 -182.5q0 -95 -33.5 -173.5t-90.5 -132t-134 -90.5t-162 -54t-176 -17q-64 0 -122.5 8t-119.5 29t-105 54t-72 87t-28 123zM246 -227q0 -61 29 -105t77.5 -67 t100 -33t108.5 -10q69 0 137.5 26.5t119 82.5t50.5 128q0 38 -5.5 65t-19.5 45.5t-29.5 29.5t-45.5 17.5t-56.5 9.5t-72.5 5q-52 3 -96 3q-112 0 -174 -17q-48 -13 -85.5 -64t-37.5 -116zM348 643q0 -45 7.5 -86t25.5 -80t53 -62.5t84 -23.5q166 0 166 219q0 252 -170 252 q-46 0 -80 -18.5t-52 -50.5t-26 -69t-8 -81z" />
<glyph unicode="h" horiz-adv-x="1251" d="M49 -6v76l72 4q56 5 65 35t9 96v958q0 90 -9 115.5t-45 28.5l-92 6v73q150 19 232 44l147 45l16 -13v-663l164 127q51 39 156 39q63 0 123 -21t98 -61q48 -50 62 -119t14 -178v-381q0 -69 8 -96q9 -30 66 -35l67 -4v-76q-18 0 -90 3t-111 3q-19 0 -190 -6v557 q0 137 -53 190q-47 47 -154 47q-60 0 -110 -46t-50 -93v-444q0 -66 9 -96t65 -35l72 -4v-76q-264 6 -277 6z" />
<glyph unicode="i" horiz-adv-x="681" d="M70 -6v76l71 4q57 5 66 35q8 27 8 96v448q0 91 -8.5 116t-44.5 28l-92 6v74q164 21 231 43l143 45l21 -13v-747q0 -69 8 -96q9 -30 66 -35l71 -4v-76q-264 6 -276 6zM178 1290q0 67 44.5 111.5t109.5 44.5t109 -44.5t44 -111.5q0 -62 -45.5 -106.5t-107.5 -44.5 t-108 44.5t-46 106.5z" />
<glyph unicode="j" horiz-adv-x="681" d="M6 -469l8 12h47q88 0 119 90q35 104 35 289v731q0 91 -8.5 116t-44.5 28l-92 6v74q164 21 231 43l143 45l21 -13v-751q0 -228 -22.5 -359t-96.5 -231q-56 -74 -120.5 -115t-125.5 -41q-23 0 -73 4zM186 1290q0 67 44.5 111.5t109.5 44.5t109.5 -44.5t44.5 -111.5 q0 -62 -46 -106.5t-108 -44.5t-108 44.5t-46 106.5z" />
<glyph unicode="k" horiz-adv-x="1251" d="M43 1313v73q158 17 248 44l147 45l17 -13v-952q131 110 217 199l219 231h266v-78h-63q-48 0 -99 -37l-127 -92q-49 -37 -159 -147l401 -451q48 -60 113 -65v-70h-353q-67 88 -178 217l-217 246h-20v-258q0 -69 8 -96q9 -30 65 -35l72 -4v-76q-264 6 -276 6q-1 0 -265 -6 v76l72 4q57 5 66 35q8 27 8 96v958q0 91 -8.5 116t-44.5 28z" />
<glyph unicode="l" horiz-adv-x="681" d="M49 1313v73q158 17 248 44l147 45l17 -13v-1257q0 -69 8 -96q9 -30 66 -35l71 -4v-76q-264 6 -276 6l-264 -6v76l71 4q57 5 66 35q8 27 8 96v958q0 91 -8.5 116t-44.5 28z" />
<glyph unicode="m" horiz-adv-x="1820" d="M49 -6v76l72 4q56 5 65 35t9 96v448q0 90 -9 115.5t-45 28.5l-92 6v74q29 1 58 4t60 9t52.5 10.5t56.5 15t50.5 15t55 18t50.5 16.5l12 -13v-153l164 127q51 39 156 39q93 0 162.5 -41.5t97.5 -124.5l164 127q24 18 54.5 27t49.5 10.5t51 1.5q160 0 222.5 -86.5 t62.5 -292.5v-381q0 -69 8 -96q9 -30 66 -35l67 -4v-76q-19 0 -90 3t-110 3q-2 0 -191 -6v557q0 137 -53 190q-47 47 -129 47q-60 0 -110 -46t-50 -93v-444q0 -69 8 -96q9 -30 66 -35l72 -4v-76q-264 6 -277 6q-16 0 -256 -6v76l64 4q55 3 65 35q8 27 8 96v346 q0 137 -53 190q-47 47 -129 47q-60 0 -110 -46t-50 -93v-444q0 -66 9 -96t65 -35l55 -4v-76q-216 6 -260 6z" />
<glyph unicode="n" horiz-adv-x="1251" d="M49 -6v76l72 4q56 5 65 35t9 96v448q0 90 -9 115.5t-45 28.5l-92 6v74q29 1 58 4t60 9t52.5 10.5t56.5 15t50.5 15t55 18t50.5 16.5l12 -13v-153l164 127q51 39 156 39q63 0 123 -21t98 -61q48 -50 62 -119t14 -178v-381q0 -69 8 -96q9 -30 66 -35l67 -4v-76q-18 0 -90 3 t-111 3q-19 0 -190 -6v559q0 135 -53 188q-47 47 -154 47q-60 0 -110 -46t-50 -93v-444q0 -66 9 -96t65 -35l72 -4v-76q-264 6 -277 6z" />
<glyph unicode="o" horiz-adv-x="1138" d="M82 461q0 240 129 372t373 132q233 0 354 -124.5t121 -355.5q0 -250 -132.5 -385t-385.5 -135q-153 0 -258 64.5t-153 174t-48 257.5zM360 510q0 -447 226 -447q43 0 76.5 15.5t54 44t34 60t19.5 73.5t8 74t2 71q0 43 -0.5 72t-5 82t-12 90t-23.5 82t-38 73t-57 47 t-79 19q-40 0 -72 -12.5t-53 -32.5t-36.5 -50.5t-23.5 -59.5t-13 -68t-6 -67.5t-1 -65.5z" />
<glyph unicode="p" horiz-adv-x="1251" d="M59 -453l72 4q57 5 66 35q8 27 8 97v970q0 91 -8.5 116t-44.5 28l-93 6v74q166 21 232 43l143 45l21 -13v-168l125 101q48 39 95 59.5t118 20.5q161 0 264.5 -109t103.5 -272q0 -118 -47 -236q-24 -63 -65 -115.5t-84 -85.5q-133 -101 -160 -118q-101 -64 -168 -64 q-62 0 -182 35v-317q0 -70 8 -97q10 -32 65 -35l93 -4v-75q-25 0 -131 3t-166 3q-1 0 -265 -6v75zM455 217q35 -54 89.5 -83.5t119.5 -29.5q68 0 117 33.5t74.5 89.5t36.5 114t11 122q0 135 -63.5 226t-192.5 91q-57 0 -111 -28t-81 -74v-461z" />
<glyph unicode="q" horiz-adv-x="1251" d="M106 420q0 126 32 213t116 149q75 56 221 127q110 56 189 56q92 0 235 -70l45 -23l107 86l43 -28q-33 -170 -33 -266v-981q0 -70 8 -97q9 -30 66 -35l71 -4v-75q-264 6 -276 6l-264 -6v75l71 4q57 5 66 35q8 27 8 97v471l-197 -158q-38 -31 -122 -31q-94 0 -169.5 37 t-121.5 100.5t-70.5 144.5t-24.5 173zM365 510q0 -58 12 -115.5t37.5 -112t73.5 -88.5t112 -34q79 0 145 46.5t66 121.5v377q-40 57 -100.5 93t-126.5 36q-54 0 -94.5 -19t-64 -48.5t-37.5 -74t-18.5 -87t-4.5 -95.5z" />
<glyph unicode="r" horiz-adv-x="796" d="M61 -6v76l72 4q57 5 66 35q8 27 8 96v448q0 91 -8.5 116t-44.5 28l-93 6v74q166 21 232 43l143 45l21 -13v-194l90 98q53 57 88 83t74 26q58 0 88 -13l-11 -264l-49 -20q-37 73 -121 73q-58 0 -108.5 -43.5t-50.5 -87.5v-405q0 -69 8 -96q4 -14 30 -23.5t60 -11.5l80 -4 v-76q-39 1 -145 3.5t-164 2.5q-1 0 -265 -6z" />
<glyph unicode="s" horiz-adv-x="909" d="M80 23l14 288h80l10 -141q81 -107 242 -107q73 0 124.5 41.5t51.5 112.5q0 62 -32 90t-97 43l-176 43q-107 26 -162 90.5t-55 161.5q0 85 31.5 148t90 100t133 54.5t167.5 17.5q162 0 256 -47l-17 -250h-73l-21 118q-6 31 -61 55.5t-107 24.5q-91 0 -140.5 -34t-49.5 -99 q0 -49 26.5 -76t85.5 -39l168 -36q133 -30 196.5 -89.5t63.5 -179.5q0 -69 -24.5 -127t-66 -98.5t-97 -68.5t-116.5 -41t-126 -13q-161 0 -319 58z" />
<glyph unicode="t" horiz-adv-x="681" d="M45 748v45l135 88v123q0 62 -8 188q155 57 250 102l29 -20q-25 -128 -25 -279v-118l233 12l-16 -133h-217v-488q0 -76 28 -104.5t99 -28.5q8 0 15.5 0.5t13 1.5t12.5 3t11 3t11.5 4.5t9.5 4.5t10.5 5t10.5 5l17 -39l-101 -121q-12 -15 -45.5 -26t-79.5 -11 q-139 0 -200.5 61t-61.5 199v531z" />
<glyph unicode="u" horiz-adv-x="1251" d="M51 803v74q166 21 232 43l143 45l20 -13v-534q0 -49 2 -80t11 -70.5t26 -62.5t49 -39t78 -16q51 0 97 29t75 75q19 31 19 80v319q0 91 -8.5 116t-44.5 28l-93 6v74q166 21 232 43l143 45l21 -13v-747q0 -69 8 -96q9 -30 65 -35l68 -4v-76q-25 1 -109.5 3.5t-117.5 2.5 q-17 0 -75 -2.5t-99 -3.5l10 170l-156 -152q-21 -21 -57.5 -34t-73.5 -13q-163 0 -241 85t-78 237v366q0 90 -9 115.5t-45 28.5z" />
<glyph unicode="v" horiz-adv-x="1138" d="M23 862v78q264 -6 266 -6l264 6v-78l-84 -4q-47 -3 -47 -37q0 -28 29 -102l180 -453q21 45 71 164l125 309q19 49 19 86q0 14 -16 23.5t-31 9.5l-78 4v78q198 -6 199 -6q29 0 61.5 1t72.5 2.5t62 2.5v-78l-61 -10q-49 -8 -74 -70l-262 -589q-24 -52 -78 -199h-176 l-293 737q-11 25 -16.5 38t-16 32t-19.5 29t-21 18.5t-25 9.5z" />
<glyph unicode="w" horiz-adv-x="1705" d="M27 862v78q276 -6 278 -6q1 0 277 6v-78l-97 -4q-14 0 -26.5 -12t-12.5 -25q0 -27 5 -47l118 -459h4q19 42 58 125t57 125l178 400h103l282 -650q49 130 80 230l74 231q6 21 6 37q0 41 -59 45l-86 4v78q24 -1 65.5 -2.5t76 -2.5t65.5 -1t65 1t75.5 2.5t65.5 2.5v-78 l-69 -4q-22 -1 -39 -24t-35 -72l-188 -533q-15 -44 -38.5 -124.5t-33.5 -110.5h-166l-270 629l-176 -365q-18 -38 -35.5 -82t-37.5 -98.5t-32 -83.5h-162l-219 786q-12 41 -32 58.5t-52 19.5z" />
<glyph unicode="x" d="M41 899q134 23 299 66q57 -45 127 -158l106 -174l222 307h194v-76q-40 0 -69 -11.5t-45 -26.5t-46 -50l-198 -233l182 -312q47 -79 86.5 -118.5t89.5 -42.5v-76q-18 1 -50 2.5t-58 2.5t-50 1l-159 -6l-205 346l-131 -180q-15 -21 -107 -160h-186v70q86 5 141 73l226 287 l-164 279q-26 43 -49 68.5t-44 35.5t-45 12.5t-51 -0.5z" />
<glyph unicode="y" horiz-adv-x="1138" d="M20 862v78q270 -6 273 -6q40 0 85 1t100 2.5t85 2.5v-78l-71 -4q-23 -2 -38.5 -14t-15.5 -33q0 -12 3 -25t6.5 -22t12 -29.5t13.5 -32.5l172 -446l207 516q8 21 8 47q0 17 -16 27t-39 12l-68 4v78q189 -6 191 -6q1 0 190 6v-78l-53 -10q-46 -10 -84 -96l-408 -949 q-57 -130 -105 -197q-112 -155 -255 -155q-71 0 -150 35l37 195l23 8q63 -76 147 -76q55 0 103.5 54t81.5 132l47 115l-324 827q-43 110 -86 113z" />
<glyph unicode="z" d="M33 -6v67q148 189 213 279l348 487h-242q-88 0 -117 -23.5t-38 -96.5l-7 -52h-77l6 275l14 10q460 -10 543 -10q44 0 254 10v-72l-549 -755h334q75 0 102 27t41 114l10 63h82q-24 -168 -24 -313l-11 -10q-80 1 -284.5 3.5t-298.5 2.5q-41 0 -299 -6z" />
<glyph unicode="{" horiz-adv-x="634" d="M10 616v5q77 20 114.5 42.5t55 64.5t17.5 120v364q0 48 7.5 86.5t23.5 66t34.5 48t48.5 33.5t57 21t68 12t73.5 5t80.5 1v-4q-110 -29 -152.5 -78t-42.5 -162v-362q0 -57 -7.5 -95.5t-28.5 -72.5t-61 -55.5t-103 -34.5v-5q64 -13 105 -35.5t61 -59t27 -76t7 -99.5v-342 q0 -113 42.5 -162t152.5 -78v-4q-48 0 -80.5 1t-73.5 5t-68 12t-57 21t-48.5 33.5t-34.5 48t-23.5 66t-7.5 86.5v356q0 78 -17.5 120t-55 64.5t-114.5 42.5z" />
<glyph unicode="|" horiz-adv-x="1241" d="M532 0v1475h177v-1475h-177z" />
<glyph unicode="}" horiz-adv-x="634" d="M45 -236q110 29 152.5 78t42.5 162v342q0 60 7 99.5t27 76t61 59t105 35.5v5q-63 13 -103 34.5t-61 55.5t-28.5 72.5t-7.5 95.5v362q0 113 -42.5 162t-152.5 78v4q48 0 80.5 -1t73.5 -5t68 -12t57 -21t48.5 -33.5t34.5 -48t23.5 -66t7.5 -86.5v-364q0 -78 17.5 -120 t55 -64.5t114.5 -42.5v-5q-77 -20 -114.5 -42.5t-55 -64.5t-17.5 -120v-356q0 -48 -7.5 -86.5t-23.5 -66t-34.5 -48t-48.5 -33.5t-57 -21t-68 -12t-73.5 -5t-80.5 -1v4z" />
<glyph unicode="~" horiz-adv-x="1241" d="M104 430q28 51 53.5 89t62.5 77t83 59.5t98 20.5q78 0 238 -70q56 -25 82 -36.5t63.5 -23t61.5 -11.5q103 0 192 165l99 -112q-27 -49 -53 -85t-62.5 -72t-82 -55.5t-97.5 -19.5q-41 0 -87.5 14t-113.5 44t-72 32q-12 5 -39.5 16.5t-44.5 17.5t-41 12t-45 6 q-33 0 -62.5 -14.5t-52.5 -42.5t-39 -52.5t-35 -58.5l-3.5 -7t-3.5 -6z" />
<glyph unicode="&#xa1;" horiz-adv-x="569" d="M121 801q0 65 48.5 114.5t111.5 49.5t111 -49t48 -115q0 -60 -48 -108t-111 -48q-64 0 -112 46t-48 110zM131 -465q0 97 14 197l103 762l78 43l10 -17l96 -733q4 -32 8 -162l-204 -90h-105z" />
<glyph unicode="&#xa2;" d="M150 430q0 84 13 147.5t48 129.5q26 50 129 114l106 68q138 86 242 86l53 160h84l-51 -166q88 -20 129 -41l10 -19q-29 -126 -36 -303h-78l-13 123q-3 23 -23 43t-40 25l-186 -619q71 -65 192 -65q100 0 174 41l19 -23l-43 -96l-9 -8q-127 -62 -258 -62q-39 0 -141 12 l-65 -194h-87l74 217q-127 57 -185 169.5t-58 260.5zM401 532q0 -149 70 -278l170 565q-72 7 -121 -12.5t-74 -63t-35 -94t-10 -117.5z" />
<glyph unicode="&#xa3;" d="M-4 82l131 106q66 54 74 144q16 174 16 323h-184v88h184v88q0 129 66 234t204 197q84 56 175 89t149 33q114 0 172 -55l-20 -278h-64l-6 71q-5 57 -49 92t-117 35q-55 0 -95.5 -18t-63 -44.5t-38 -70t-21 -79.5t-9.5 -89l-17 -205h344v-88h-354q-50 -281 -227 -458l4 -4 q118 36 199 36q46 0 186 -20q147 -21 201 -21q36 0 64 16.5t34 45.5l22 115h70l-20 -367q-83 -35 -187 -31q-149 5 -315 53q-162 46 -275 46q-35 0 -94 -46q-2 -2 -11 -9t-12.5 -10t-12 -9.5t-14.5 -10t-14.5 -8t-17 -7.5t-16.5 -5z" />
<glyph unicode="&#xa4;" d="M66 289l100 100q-86 100 -86 250q0 166 86 252l-100 100l96 96l98 -98q44 38 114 61t142 23q68 0 134.5 -22.5t109.5 -59.5l98 101l100 -101l-94 -98q38 -42 59 -110t21 -140q0 -154 -82 -256l94 -98l-92 -92l-96 100q-45 -42 -112.5 -65t-139.5 -23q-165 0 -260 86 l-98 -98zM238 639q0 -114 82 -194t196 -80q112 0 191 82.5t79 195.5q0 110 -79.5 191t-190.5 81q-115 0 -196.5 -80.5t-81.5 -195.5z" />
<glyph unicode="&#xa5;" d="M35 1274v76l235 73q37 -29 70.5 -79.5t51.5 -89.5t46 -109l164 -416l272 660h115v-39l-276 -568h241v-82h-274q-31 -64 -31 -118v-78h305v-82h-305v-146q0 -134 10 -165q6 -24 62 -29l53 -6v-82q-171 6 -227 6q-49 0 -232 -6v82l54 6q55 5 61 29q10 31 10 165v146h-305 v82h305v82q0 13 -6 30t-11.5 27.5t-17 31t-14.5 25.5h-256v82h221l-129 287q-32 72 -77 137q-26 38 -52 53t-63 15z" />
<glyph unicode="&#xa6;" horiz-adv-x="1241" d="M532 0v590h177v-590h-177zM532 885v590h177v-590h-177z" />
<glyph unicode="&#xa7;" d="M61 469q0 85 27 138.5t94 117.5l39 37q-46 36 -71 91t-25 116q0 84 45 177.5t109 156.5q55 54 145.5 87t171.5 33q141 0 272 -67q-23 -100 -34 -301h-78q3 102 -15 164q-22 30 -87.5 46.5t-116.5 16.5q-46 0 -91 -11t-86 -33t-66.5 -60.5t-25.5 -87.5q0 -32 11 -59 t34.5 -47.5t44 -34.5t57 -28t55.5 -20t56 -16l109 -33q11 -3 44 -12.5t53 -15.5t53.5 -20t55 -27.5t47.5 -37t41 -50t25.5 -64.5t10.5 -82q0 -101 -32.5 -163.5t-113.5 -143.5q61 -42 87 -96.5t26 -131.5q0 -92 -49.5 -180t-126.5 -152q-144 -120 -330 -120q-196 0 -326 92 q9 66 29 317h80q-3 -39 1.5 -89t14.5 -83q42 -55 118 -83.5t153 -28.5q107 0 189.5 68.5t82.5 144.5q0 40 -18 73t-38 53t-63.5 41.5t-64.5 29t-71 23.5q-14 5 -21 7l-125 41q-54 18 -92 33.5t-81.5 42t-70 57t-44.5 75.5t-18 99zM213 575q0 -49 41 -87.5t96 -63.5 q15 -6 41.5 -17.5t48.5 -21t41 -16.5l273 -101q59 72 59 135q0 40 -14.5 73.5t-35.5 55.5t-55.5 41.5t-62 31t-67.5 24.5l-293 98q-72 -80 -72 -152z" />
<glyph unicode="&#xa8;" horiz-adv-x="681" d="M-16 1237q0 57 40 97t97 40t97 -40t40 -97t-40 -97t-97 -40t-97 40t-40 97zM424 1237q0 57 40 97t97 40t97 -40t40 -97t-40 -97t-97 -40t-97 40t-40 97z" />
<glyph unicode="&#xa9;" horiz-adv-x="1529" d="M53 692q0 148 56 283.5t151 233.5t226.5 156t275.5 58q145 0 277 -57.5t227.5 -155t152 -233.5t56.5 -285q0 -148 -56.5 -282.5t-152 -232t-227.5 -155t-277 -57.5q-192 0 -355.5 97.5t-258.5 265t-95 364.5zM168 694q0 -166 79.5 -307.5t216.5 -224t298 -82.5 q162 0 300 82.5t218 224t80 307.5q0 168 -79.5 309.5t-217.5 223.5t-301 82q-162 0 -299 -82.5t-216 -224t-79 -308.5zM385 682q0 182 110.5 298t288.5 116q48 0 144 -21q93 -21 135 -37v-213h-66q-13 88 -62.5 143.5t-133.5 55.5q-79 0 -135.5 -46t-81.5 -113t-25 -146 q0 -63 15 -124t44.5 -115t82 -87t120.5 -33q59 0 114 27t83 76l16 29l53 -23q-36 -90 -128.5 -139t-196.5 -49q-169 0 -273 113.5t-104 287.5z" />
<glyph unicode="&#xaa;" horiz-adv-x="897" d="M158 901q0 93 61 131q55 35 166 58l117 20q0 145 -140 145q-67 0 -73 -16l-29 -61l-45 8v80l158 75q22 11 63 11q102 0 165 -43.5t63 -137.5v-303q0 -46 36 -49l39 -4v-45q-21 0 -59 1t-57 1q-17 0 -56.5 -1t-64.5 -1l-6 8l6 78l-123 -90q-20 -14 -74 -14q-71 0 -109 41 t-38 108zM319 932q0 -36 20.5 -55t51.5 -19q29 0 63.5 18t47.5 37v146l-60 -15q-34 -8 -51 -14t-36.5 -18t-27.5 -31.5t-8 -48.5z" />
<glyph unicode="&#xab;" d="M74 473v51q259 225 405 373l56 -45l-226 -354l226 -367l-56 -41q-267 272 -405 383zM487 473v51q266 231 406 373l55 -45l-225 -354l225 -367l-55 -41q-263 268 -406 383z" />
<glyph unicode="&#xac;" horiz-adv-x="1241" d="M104 635v176h1033v-578h-176v402h-857z" />
<glyph unicode="&#xad;" horiz-adv-x="681" d="M33 416q9 26 25 72.5t27.5 80t16.5 56.5h529l18 -21q-51 -113 -65 -205h-535z" />
<glyph unicode="&#xae;" horiz-adv-x="1529" d="M53 692q0 148 56 283.5t151 233.5t226.5 156t275.5 58q145 0 277 -57.5t227.5 -155t152 -233.5t56.5 -285q0 -148 -56.5 -282.5t-152 -232t-227.5 -155t-277 -57.5q-192 0 -355.5 97.5t-258.5 265t-95 364.5zM168 694q0 -166 79.5 -307.5t216.5 -224t298 -82.5 q162 0 300 82.5t218 224t80 307.5q0 168 -79.5 309.5t-217.5 223.5t-301 82q-162 0 -299 -82.5t-216 -224t-79 -308.5zM432 324v41h29q38 0 49.5 8.5t11.5 46.5v584q0 39 -9.5 49t-47.5 10h-31v43h311h23.5h26t25 -0.5t27.5 -1.5t25 -2.5t26.5 -4t23.5 -6t24 -9t21 -11.5 q36 -23 60 -68t24 -88q0 -86 -57 -140.5t-142 -67.5v-5q24 -4 46 -18.5t36 -29t31 -43.5t23.5 -43t21.5 -46q45 -98 65 -127q12 -17 26 -23.5t40 -6.5v-41h-140q-39 0 -63 32q-19 27 -74 152q-51 116 -71 141q-6 7 -12 12t-14 8t-12.5 5t-16 3t-14 1h-16h-14.5h-30v-250 q0 -34 9.5 -47t43.5 -14l35 -2v-41h-320zM663.5 994q0.5 -10 0.5 -13v-252l38 -2q205 -11 205 170q0 82 -43.5 124.5t-122.5 39.5l-43 -2q-8 0 -14.5 -3t-10 -8.5t-6 -10.5t-3 -14t-1 -14t0 -15z" />
<glyph unicode="&#xaf;" horiz-adv-x="681" d="M2 1102v145h678v-145h-678z" />
<glyph unicode="&#xb0;" horiz-adv-x="819" d="M102 1044q-2 126 89 217t219 91q126 0 216.5 -91t90.5 -217q0 -127 -90.5 -217t-216.5 -90q-128 0 -218 90t-90 217zM227 1044q0 -75 54 -128.5t129 -53.5t128.5 53.5t53.5 128.5t-54 129t-132 54q-73 0 -126.5 -54.5t-52.5 -128.5z" />
<glyph unicode="&#xb1;" horiz-adv-x="1241" d="M104 0v176h1033v-176h-1033zM104 557v176h428v301h177v-301h428v-176h-428v-301h-177v301h-428z" />
<glyph unicode="&#xb2;" horiz-adv-x="614" d="M10 535v75l221 207q144 136 144 260q0 64 -38 99.5t-97 35.5q-54 0 -81 -18.5t-40 -65.5l-21 -67l-57 8l25 207q102 76 208 76q128 0 208.5 -59.5t80.5 -159.5q0 -64 -39 -132.5t-98 -123.5l-197 -185v-16l365 18l10 -10q-6 -82 0 -149q-258 4 -297 4q-47 0 -297 -4z" />
<glyph unicode="&#xb3;" horiz-adv-x="614" d="M18 748l45 10q33 -72 81.5 -110t123.5 -38q67 0 115.5 48t48.5 108q0 69 -45 111.5t-121 42.5q-32 0 -82 -11l-10 6l27 91h45q66 0 108.5 34t42.5 99q0 47 -36 74.5t-99 27.5q-64 0 -100 -35t-49 -84h-54l41 189q98 55 201 55q107 0 175.5 -48.5t68.5 -123.5 q0 -59 -41 -105t-105 -73v-4q89 -5 144 -51t55 -127q0 -134 -121 -220q-108 -79 -252 -79q-109 0 -174 28q-3 25 -8.5 57t-13.5 72t-11 56z" />
<glyph unicode="&#xb4;" horiz-adv-x="681" d="M160 1036l264 303q36 40 64.5 58t70.5 18q41 0 64.5 -26t23.5 -64q0 -16 -5 -31t-10 -24t-19.5 -21t-20 -16t-26 -16.5t-23.5 -14.5l-269 -166h-114z" />
<glyph unicode="&#xb5;" horiz-adv-x="1251" d="M51 803v74q166 21 232 43l143 45l20 -13v-534q0 -49 2 -80t11 -70.5t26 -62.5t49 -39t78 -16q51 0 97 29t75 75q19 31 19 80v319q0 91 -8.5 116t-44.5 28l-93 6v74q166 21 232 43l143 45l21 -13v-747q0 -69 8 -96q9 -30 65 -35l68 -4v-76q-25 1 -109.5 3.5t-117.5 2.5 q-17 0 -75 -2.5t-99 -3.5l10 170l-174 -174q-25 -25 -115 -25q-102 0 -166 47q33 -207 33 -319q0 -62 -59.5 -108t-124.5 -46v1114q0 90 -9 115.5t-45 28.5z" />
<glyph unicode="&#xb6;" horiz-adv-x="1312" d="M39 1087q0 136 125.5 229t329.5 83q31 -1 92 -4t92 -4q29 0 90 -1t92 -1q55 0 116 1t135.5 2.5t115.5 2.5v-84h-97q-44 0 -60.5 -36.5t-16.5 -121.5v-1264q0 -69 8 -96q10 -32 65 -35l101 -4v-84q-411 6 -414 6t-414 -6v84l101 4q55 3 65 35q8 27 8 96v775q-62 0 -132 16 t-142 50.5t-129.5 83t-94 120t-36.5 153.5zM307 1047q0 -110 77 -188.5t189 -98.5v538q-41 6 -85 -5.5t-85.5 -39t-68.5 -81.5t-27 -125zM754 -227h118v1525h-118v-1525z" />
<glyph unicode="&#xb7;" horiz-adv-x="512" d="M96 522q0 65 48.5 114.5t111.5 49.5t111.5 -49t48.5 -115q0 -59 -48 -107t-112 -48t-112 45.5t-48 109.5z" />
<glyph unicode="&#xb8;" horiz-adv-x="681" d="M150 -424l32 76q240 -55 240 57q0 95 -152 64l-20 16l88 197h84l-57 -131q53 12 88 12q84 0 122.5 -43t38.5 -111q0 -51 -28 -87t-74 -54t-90.5 -25.5t-91.5 -7.5q-83 0 -180 37z" />
<glyph unicode="&#xb9;" horiz-adv-x="614" d="M29 1237q107 26 405 125l17 -10q-1 -18 -8 -84t-7 -101v-475q0 -45 21.5 -67.5t54.5 -24.5l76 -4v-61q-46 1 -98 2t-82.5 1.5t-55.5 0.5q-24 0 -56.5 -0.5t-91 -1.5t-122.5 -2v61l86 4q35 2 56.5 24.5t21.5 67.5v482q0 13 -0.5 20t-2.5 16.5t-6.5 9.5t-11.5 -1l-178 -80 q-20 68 -18 98z" />
<glyph unicode="&#xba;" horiz-adv-x="999" d="M182 1049q0 144 84 223.5t242 79.5q151 0 230 -74.5t79 -212.5q0 -150 -86.5 -231.5t-251.5 -81.5q-148 0 -222.5 81t-74.5 216zM362 1079q0 -268 148 -268q127 0 127 203q0 30 -1 51t-4.5 58t-13 63t-24 52t-40 40t-58.5 14q-44 0 -73 -20t-41 -56t-16 -66t-4 -71z" />
<glyph unicode="&#xbb;" d="M76 131l225 367l-225 354l55 45q140 -142 406 -373v-51q-143 -115 -406 -383zM489 131l226 367l-226 354l56 45q146 -148 405 -373v-51q-138 -111 -405 -383z" />
<glyph unicode="&#xbc;" horiz-adv-x="1536" d="M39 1237q107 26 405 125l17 -10q-1 -18 -8 -84t-7 -101v-475q0 -45 21.5 -67.5t54.5 -24.5l76 -4v-61q-46 1 -98 2t-82.5 1.5t-55.5 0.5q-24 0 -56.5 -0.5t-91 -1.5t-122.5 -2v61l86 4q35 2 56.5 24.5t21.5 67.5v482q0 14 -0.5 20t-2 16.5t-5.5 9.5t-12 -1l-179 -80 q-20 68 -18 98zM385 0l825 1352h142l-826 -1352h-141zM893 250q50 118 63 139l160 264q41 69 103 140l155 32l17 -14v-500h110v-108h-110v-49q0 -86 75 -93l39 -4v-61q-172 4 -200 4q-25 0 -55.5 -0.5t-83.5 -1.5t-101 -2v61l78 4q33 2 54.5 25t21.5 68v49h-318zM1001 311 h218v357h-7z" />
<glyph unicode="&#xbd;" horiz-adv-x="1536" d="M18 1237q110 26 406 125l16 -10q-1 -14 -7.5 -81.5t-6.5 -103.5v-475q0 -45 21.5 -67.5t54.5 -24.5l76 -4v-61q-46 1 -98 2t-82.5 1.5t-55.5 0.5q-24 0 -56.5 -0.5t-91 -1.5t-122.5 -2v61l86 4q35 2 56.5 24.5t21.5 67.5v482q0 13 -0.5 20t-2.5 16.5t-6.5 9.5t-11.5 -1 l-178 -80q-21 71 -19 98zM317 0l826 1352h141l-825 -1352h-142zM932 -4v76l221 207q143 135 143 260q0 64 -38 99.5t-97 35.5q-54 0 -81 -18.5t-40 -65.5l-20 -68l-57 8l24 207q102 76 209 76q128 0 208.5 -59.5t80.5 -159.5q0 -64 -39 -132.5t-98 -123.5l-197 -184v-17 l365 19l10 -11q-6 -82 0 -149q-258 4 -297 4q-47 0 -297 -4z" />
<glyph unicode="&#xbe;" horiz-adv-x="1536" d="M31 748l45 10q33 -72 81.5 -110t123.5 -38q67 0 115 48t48 108q0 70 -44.5 112t-120.5 42q-32 0 -82 -11l-11 6l27 91h45q67 0 109.5 34t42.5 99q0 47 -36.5 74.5t-99.5 27.5q-64 0 -100 -35t-49 -84h-53l41 189q98 55 200 55q107 0 175.5 -48.5t68.5 -123.5 q0 -59 -40.5 -105t-104.5 -73v-4q89 -5 143.5 -51t54.5 -127q0 -134 -121 -220q-108 -79 -251 -79q-110 0 -175 28q-2 21 -32 185zM328 0l825 1352h141l-825 -1352h-141zM893 250q50 118 63 139l160 264q41 69 103 140l155 32l17 -14v-500h110v-108h-110v-49q0 -86 75 -93 l39 -4v-61q-172 4 -200 4q-25 0 -55.5 -0.5t-83.5 -1.5t-101 -2v61l78 4q33 2 54.5 25t21.5 68v49h-318zM1001 311h218v357h-7z" />
<glyph unicode="&#xbf;" horiz-adv-x="909" d="M68 -160q0 98 32.5 157t112.5 126l158 131q69 58 99.5 107t29.5 82.5t-21 72.5l-2 4l70 29q53 -61 53 -160q0 -55 -40 -121.5t-116 -154.5q-102 -119 -102 -215q0 -76 55.5 -125t132.5 -49q59 0 102.5 12.5t53.5 34.5l64 145l71 -18q-60 -179 -65 -273q-133 -98 -305 -98 q-73 0 -140 19t-122 55.5t-88 98.5t-33 140zM352 801q0 65 48.5 114.5t111.5 49.5t111.5 -49t48.5 -115q0 -59 -48 -107.5t-112 -48.5t-112 46t-48 110z" />
<glyph unicode="&#xc0;" horiz-adv-x="1593" d="M49 -6v76l62 6q65 7 114 123l371 897l53 141l33 84l31 84h145l531 -1239q19 -42 43 -63t69 -27l49 -6v-76q-60 1 -167 3.5t-150 2.5q-44 0 -152 -2.5t-166 -3.5v76l109 6q27 2 37 32t-8 80l-92 234h-515l-86 -229q-20 -53 -1.5 -84t51.5 -33l102 -6v-76q-42 1 -120.5 3.5 t-110.5 2.5t-111 -2.5t-121 -3.5zM477 1784q0 38 23.5 64t64.5 26q42 0 70.5 -18t64.5 -58l265 -303h-115l-268 166q-4 3 -24 15t-26 16t-20 16t-19.5 21t-10.5 24t-5 31zM496 537h417l-213 520z" />
<glyph unicode="&#xc1;" horiz-adv-x="1593" d="M49 -6v76l62 6q65 7 114 123l371 897l53 141l33 84l31 84h145l531 -1239q19 -42 43 -63t69 -27l49 -6v-76q-60 1 -167 3.5t-150 2.5q-44 0 -152 -2.5t-166 -3.5v76l109 6q27 2 37 32t-8 80l-92 234h-515l-86 -229q-20 -53 -1.5 -84t51.5 -33l102 -6v-76q-42 1 -120.5 3.5 t-110.5 2.5t-111 -2.5t-121 -3.5zM496 537h417l-213 520zM616 1495l265 303q36 40 64.5 58t70.5 18q41 0 64.5 -26t23.5 -64q0 -16 -5 -31t-10.5 -24t-19.5 -21t-20 -16t-26 -16t-24 -15l-268 -166h-115z" />
<glyph unicode="&#xc2;" horiz-adv-x="1593" d="M49 -6v76l62 6q65 7 114 123l371 897l53 141l33 84l31 84h145l531 -1239q19 -42 43 -63t69 -27l49 -6v-76q-60 1 -167 3.5t-150 2.5q-44 0 -152 -2.5t-166 -3.5v76l109 6q27 2 37 32t-8 80l-92 234h-515l-86 -229q-20 -53 -1.5 -84t51.5 -33l102 -6v-76q-42 1 -120.5 3.5 t-110.5 2.5t-111 -2.5t-121 -3.5zM428 1495l248 358h190l252 -358h-117l-229 201l-231 -201h-113zM496 537h417l-213 520z" />
<glyph unicode="&#xc3;" horiz-adv-x="1593" d="M49 -6v76l62 6q65 7 114 123l371 897l53 141l33 84l31 84h145l531 -1239q19 -42 43 -63t69 -27l49 -6v-76q-60 1 -167 3.5t-150 2.5q-44 0 -152 -2.5t-166 -3.5v76l109 6q27 2 37 32t-8 80l-92 234h-515l-86 -229q-20 -53 -1.5 -84t51.5 -33l102 -6v-76q-42 1 -120.5 3.5 t-110.5 2.5t-111 -2.5t-121 -3.5zM424 1556q1 31 15 71.5t41 83.5t76 72t110 29q59 0 159 -49t152 -49q10 0 18.5 1.5t15.5 3.5t13.5 6.5t11 7.5t10 10.5t8 11t8 13.5t7 13.5t7 15t7.5 15.5h88q-62 -258 -247 -258q-60 0 -166 52q-100 49 -156 49q-36 0 -60.5 -29.5 t-35.5 -69.5h-82zM496 537h417l-213 520z" />
<glyph unicode="&#xc4;" horiz-adv-x="1593" d="M49 -6v76l62 6q65 7 114 123l371 897l53 141l33 84l31 84h145l531 -1239q19 -42 43 -63t69 -27l49 -6v-76q-60 1 -167 3.5t-150 2.5q-44 0 -152 -2.5t-166 -3.5v76l109 6q27 2 37 32t-8 80l-92 234h-515l-86 -229q-20 -53 -1.5 -84t51.5 -33l102 -6v-76q-42 1 -120.5 3.5 t-110.5 2.5t-111 -2.5t-121 -3.5zM440 1696q0 57 40.5 97t97.5 40t97 -40t40 -97t-40 -97t-97 -40t-97.5 40t-40.5 97zM496 537h417l-213 520zM881 1696q0 57 40 97t97 40t97 -40t40 -97t-40 -97t-97 -40t-97 40t-40 97z" />
<glyph unicode="&#xc5;" horiz-adv-x="1593" d="M49 -6v76l62 6q65 7 114 123l371 897l53 141l33 84l31 84h145l531 -1239q19 -42 43 -63t69 -27l49 -6v-76q-60 1 -167 3.5t-150 2.5q-44 0 -152 -2.5t-166 -3.5v76l109 6q27 2 37 32t-8 80l-92 234h-515l-86 -229q-20 -53 -1.5 -84t51.5 -33l102 -6v-76q-42 1 -120.5 3.5 t-110.5 2.5t-111 -2.5t-121 -3.5zM496 537h417l-213 520zM594 1688q0 85 60 144.5t145 59.5t145 -59.5t60 -144.5t-60 -145t-145 -60t-145 60t-60 145zM696 1688q0 -43 30 -73t73 -30t72.5 30t29.5 73t-29.5 72.5t-72.5 29.5t-73 -29.5t-30 -72.5z" />
<glyph unicode="&#xc6;" horiz-adv-x="2048" d="M25 -6v76l77 6q19 2 41 22.5t36 40.5t34 54l594 1003q35 56 35 82q0 13 -25 22.5t-63 12.5l-107 6v76q516 -6 524 -6q98 0 449 6q190 3 299 -6l12 -15l-28 -291h-74l-17 154q-3 21 -74.5 30t-160.5 9q-133 0 -262 -6v-492q47 -4 137 -4h135q61 0 87.5 8t29.5 35l12 117 h82q-1 -25 -2.5 -69t-2.5 -80.5t-1 -69.5t1 -69.5t2.5 -81.5t2.5 -70h-82l-12 102q-4 41 -32.5 58.5t-84.5 17.5h-135q-66 0 -137 -6v-547q129 -6 262 -6q74 0 160.5 11t89.5 23l47 193h80l-23 -324l-10 -16q-201 -15 -504 -6q-28 1 -79.5 2.5t-93.5 2.5t-79 1 q-35 0 -245 -6v47l65 37q24 13 32.5 40t8.5 77v243h-532l-127 -219q-39 -68 -39 -113q0 -7 14.5 -18t34.5 -12l110 -6v-76q-28 1 -79 2.5t-93 2.5t-79 1q-40 0 -117.5 -3t-93.5 -3zM555 547h471v694q0 17 -14 35h-15z" />
<glyph unicode="&#xc7;" horiz-adv-x="1478" d="M90 717q0 138 43.5 254t119.5 198.5t179.5 140t224 85.5t252.5 28q140 0 252 -19.5t250 -76.5l12 -22q-20 -72 -47 -314h-80l-10 176q-137 142 -368 142q-166 0 -285 -74.5t-177.5 -201t-58.5 -290.5q0 -189 69.5 -333.5t207.5 -228t327 -83.5q91 0 202.5 29.5 t189.5 75.5l24 -25l-45 -100q-185 -113 -471 -113q-176 0 -324 49.5t-256.5 142.5t-169.5 236.5t-61 323.5zM549 -424l33 76q239 -55 239 57q0 95 -151 64l-21 16l88 197h84l-57 -131q52 12 88 12q84 0 123 -43t39 -111q0 -51 -28 -87t-74.5 -54t-91 -25.5t-91.5 -7.5 q-83 0 -180 37z" />
<glyph unicode="&#xc8;" horiz-adv-x="1251" d="M80 1319v76q58 -1 166.5 -3.5t152.5 -2.5q98 0 449 6q190 3 299 -6l12 -15l-29 -291h-73l-17 154q-3 21 -74.5 30t-160.5 9q-133 0 -262 -6v-492q47 -4 137 -4h135q61 0 87.5 8t29.5 35l12 117h82q-1 -25 -2.5 -69t-2.5 -80.5t-1 -69.5t1 -69.5t2.5 -81.5t2.5 -70h-82 l-12 102q-4 41 -32.5 58.5t-84.5 17.5h-135q-66 0 -137 -6v-547q129 -6 262 -6q74 0 160.5 11t89.5 23l47 193h80l-23 -324l-10 -16q-201 -15 -504 -6q-28 1 -79.5 2.5t-93.5 2.5t-79 1q-18 0 -246 -6v47l66 37q24 13 32.5 40t8.5 77v917q0 137 -14 166q-15 30 -84 35z M322 1784q0 38 23.5 64t64.5 26q42 0 70.5 -18t64.5 -58l264 -303h-115l-268 166q-3 2 -23.5 14.5t-26 16.5t-20 16t-19.5 21t-10 24t-5 31z" />
<glyph unicode="&#xc9;" horiz-adv-x="1251" d="M80 1319v76q58 -1 166.5 -3.5t152.5 -2.5q98 0 449 6q190 3 299 -6l12 -15l-29 -291h-73l-17 154q-3 21 -74.5 30t-160.5 9q-133 0 -262 -6v-492q47 -4 137 -4h135q61 0 87.5 8t29.5 35l12 117h82q-1 -25 -2.5 -69t-2.5 -80.5t-1 -69.5t1 -69.5t2.5 -81.5t2.5 -70h-82 l-12 102q-4 41 -32.5 58.5t-84.5 17.5h-135q-66 0 -137 -6v-547q129 -6 262 -6q74 0 160.5 11t89.5 23l47 193h80l-23 -324l-10 -16q-201 -15 -504 -6q-28 1 -79.5 2.5t-93.5 2.5t-79 1q-18 0 -246 -6v47l66 37q24 13 32.5 40t8.5 77v917q0 137 -14 166q-15 30 -84 35z M444 1495l265 303q36 40 64.5 58t70.5 18q41 0 64.5 -26t23.5 -64q0 -16 -5 -31t-10.5 -24t-19.5 -21t-20 -16t-26 -16t-24 -15l-268 -166h-115z" />
<glyph unicode="&#xca;" horiz-adv-x="1251" d="M80 1319v76q58 -1 166.5 -3.5t152.5 -2.5q98 0 449 6q190 3 299 -6l12 -15l-29 -291h-73l-17 154q-3 21 -74.5 30t-160.5 9q-133 0 -262 -6v-492q47 -4 137 -4h135q61 0 87.5 8t29.5 35l12 117h82q-1 -25 -2.5 -69t-2.5 -80.5t-1 -69.5t1 -69.5t2.5 -81.5t2.5 -70h-82 l-12 102q-4 41 -32.5 58.5t-84.5 17.5h-135q-66 0 -137 -6v-547q129 -6 262 -6q74 0 160.5 11t89.5 23l47 193h80l-23 -324l-10 -16q-201 -15 -504 -6q-28 1 -79.5 2.5t-93.5 2.5t-79 1q-18 0 -246 -6v47l66 37q24 13 32.5 40t8.5 77v917q0 137 -14 166q-15 30 -84 35z M281 1495l247 358h191l252 -358h-117l-229 201l-232 -201h-112z" />
<glyph unicode="&#xcb;" horiz-adv-x="1251" d="M80 1319v76q58 -1 166.5 -3.5t152.5 -2.5q98 0 449 6q190 3 299 -6l12 -15l-29 -291h-73l-17 154q-3 21 -74.5 30t-160.5 9q-133 0 -262 -6v-492q47 -4 137 -4h135q61 0 87.5 8t29.5 35l12 117h82q-1 -25 -2.5 -69t-2.5 -80.5t-1 -69.5t1 -69.5t2.5 -81.5t2.5 -70h-82 l-12 102q-4 41 -32.5 58.5t-84.5 17.5h-135q-66 0 -137 -6v-547q129 -6 262 -6q74 0 160.5 11t89.5 23l47 193h80l-23 -324l-10 -16q-201 -15 -504 -6q-28 1 -79.5 2.5t-93.5 2.5t-79 1q-18 0 -246 -6v47l66 37q24 13 32.5 40t8.5 77v917q0 137 -14 166q-15 30 -84 35z M268 1696q0 57 40.5 97t97.5 40t97 -40t40 -97t-40 -97t-97 -40t-97.5 40t-40.5 97zM709 1696q0 57 40 97t97 40t97 -40t40 -97t-40 -97t-97 -40t-97 40t-40 97z" />
<glyph unicode="&#xcc;" horiz-adv-x="796" d="M80 -6v82l76 6q72 5 84 29q14 29 14 165v836q0 137 -14 166q-12 24 -84 29l-76 6v82q252 -6 319 -6q66 0 318 6v-82l-76 -6q-72 -5 -84 -29q-14 -29 -14 -166v-836q0 -136 14 -165q12 -24 84 -29l76 -6v-82q-252 6 -318 6q-67 0 -319 -6zM94 1784q0 38 23.5 64t64.5 26 q42 0 70.5 -18t64.5 -58l265 -303h-115l-268 166q-4 3 -24 15t-26 16t-20 16t-19.5 21t-10.5 24t-5 31z" />
<glyph unicode="&#xcd;" horiz-adv-x="796" d="M80 -6v82l76 6q72 5 84 29q14 29 14 165v836q0 137 -14 166q-12 24 -84 29l-76 6v82q252 -6 319 -6q66 0 318 6v-82l-76 -6q-72 -5 -84 -29q-14 -29 -14 -166v-836q0 -136 14 -165q12 -24 84 -29l76 -6v-82q-252 6 -318 6q-67 0 -319 -6zM217 1495l264 303q36 40 64.5 58 t70.5 18q41 0 65 -26t24 -64q0 -16 -5 -31t-10.5 -24t-19.5 -21t-20 -16t-26 -16t-24 -15l-268 -166h-115z" />
<glyph unicode="&#xce;" horiz-adv-x="796" d="M53 1495l248 358h191l251 -358h-116l-230 201l-231 -201h-113zM80 -6v82l76 6q72 5 84 29q14 29 14 165v836q0 137 -14 166q-12 24 -84 29l-76 6v82q252 -6 319 -6q66 0 318 6v-82l-76 -6q-72 -5 -84 -29q-14 -29 -14 -166v-836q0 -136 14 -165q12 -24 84 -29l76 -6v-82 q-252 6 -318 6q-67 0 -319 -6z" />
<glyph unicode="&#xcf;" horiz-adv-x="796" d="M41 1696q0 57 40 97t97 40t97 -40t40 -97t-40 -97t-97 -40t-97 40t-40 97zM80 -6v82l76 6q72 5 84 29q14 29 14 165v836q0 137 -14 166q-12 24 -84 29l-76 6v82q252 -6 319 -6q66 0 318 6v-82l-76 -6q-72 -5 -84 -29q-14 -29 -14 -166v-836q0 -136 14 -165q12 -24 84 -29 l76 -6v-82q-252 6 -318 6q-67 0 -319 -6zM481 1696q0 57 40 97t97 40t97.5 -40t40.5 -97t-40.5 -97t-97.5 -40t-97 40t-40 97z" />
<glyph unicode="&#xd0;" horiz-adv-x="1705" d="M20 692v86h226v334q0 135 -15 166q-15 30 -84 35l-75 6v76q58 -1 166.5 -3.5t152.5 -2.5q61 0 246 3t281 3q341 0 516.5 -152t175.5 -487q0 -145 -46.5 -270t-127.5 -215.5t-189 -154.5t-232.5 -94t-256.5 -28q-34 1 -96 2.5t-113 2.5t-96 1q-60 0 -177.5 -3t-136.5 -3 v47l66 37q24 13 32.5 40t8.5 77v497h-226zM535 117q65 -11 176 -11q304 0 448 150.5t144 460.5q0 307 -148 441t-496 134q-67 0 -124 -8v-506h309v-86h-309v-575z" />
<glyph unicode="&#xd1;" horiz-adv-x="1705" d="M72 -6v76l75 6q69 5 84 35q15 31 15 165v836q0 135 -15 166q-15 30 -84 35l-75 6v76q27 -1 77 -2.5t91 -2.5t77 -1q1 0 172 6q9 -12 88 -117t123 -156l639 -745v735q0 137 -14 166q-15 30 -84 35l-76 6v76q234 -6 236 -6q35 0 73.5 1t86 2.5t73.5 2.5v-76l-75 -6 q-69 -5 -84 -35q-15 -31 -15 -166v-930q0 -24 6 -207l-14 -8l-168 27q-156 175 -250 285l-663 798h-4v-801q0 -136 14 -165q15 -30 84 -35l76 -6v-76q-26 1 -73.5 2.5t-86.5 2.5t-74 1q-1 0 -235 -6zM479 1556q1 31 15 71.5t41 83.5t76 72t110 29q60 0 160 -49t151 -49 q22 0 38 6t28 20t19 26.5t17 34.5q3 7 5 11h88q-62 -258 -248 -258q-60 0 -166 52q-100 49 -156 49q-36 0 -60.5 -29.5t-35.5 -69.5h-82z" />
<glyph unicode="&#xd2;" horiz-adv-x="1705" d="M96 682q0 237 97 405.5t271 252t410 83.5q348 0 543 -185t195 -531q0 -237 -97 -405.5t-271 -252.5t-410 -84q-348 0 -543 185.5t-195 531.5zM403 717q0 -129 27.5 -242.5t79.5 -202.5t135.5 -140.5t188.5 -51.5q111 0 195 32.5t135.5 86t84 132t44.5 160t12 179.5 q0 129 -27.5 243t-79.5 203t-135.5 141t-188.5 52q-111 0 -195 -33t-135.5 -86.5t-84 -132t-44.5 -160.5t-12 -180zM549 1784q0 38 23.5 64t64.5 26q42 0 70.5 -18t64.5 -58l264 -303h-114l-269 166q-3 2 -23.5 14.5t-26 16.5t-20 16t-19.5 21t-10 24t-5 31z" />
<glyph unicode="&#xd3;" horiz-adv-x="1705" d="M96 682q0 237 97 405.5t271 252t410 83.5q348 0 543 -185t195 -531q0 -237 -97 -405.5t-271 -252.5t-410 -84q-348 0 -543 185.5t-195 531.5zM403 717q0 -129 27.5 -242.5t79.5 -202.5t135.5 -140.5t188.5 -51.5q111 0 195 32.5t135.5 86t84 132t44.5 160t12 179.5 q0 129 -27.5 243t-79.5 203t-135.5 141t-188.5 52q-111 0 -195 -33t-135.5 -86.5t-84 -132t-44.5 -160.5t-12 -180zM672 1495l264 303q36 40 64.5 58t70.5 18q41 0 64.5 -26t23.5 -64q0 -16 -5 -31t-10 -24t-19.5 -21t-20 -16t-26 -16.5t-23.5 -14.5l-269 -166h-114z" />
<glyph unicode="&#xd4;" horiz-adv-x="1705" d="M96 682q0 237 97 405.5t271 252t410 83.5q348 0 543 -185t195 -531q0 -237 -97 -405.5t-271 -252.5t-410 -84q-348 0 -543 185.5t-195 531.5zM403 717q0 -129 27.5 -242.5t79.5 -202.5t135.5 -140.5t188.5 -51.5q111 0 195 32.5t135.5 86t84 132t44.5 160t12 179.5 q0 129 -27.5 243t-79.5 203t-135.5 141t-188.5 52q-111 0 -195 -33t-135.5 -86.5t-84 -132t-44.5 -160.5t-12 -180zM508 1495l248 358h190l252 -358h-117l-229 201l-231 -201h-113z" />
<glyph unicode="&#xd5;" horiz-adv-x="1705" d="M96 682q0 237 97 405.5t271 252t410 83.5q348 0 543 -185t195 -531q0 -237 -97 -405.5t-271 -252.5t-410 -84q-348 0 -543 185.5t-195 531.5zM403 717q0 -129 27.5 -242.5t79.5 -202.5t135.5 -140.5t188.5 -51.5q111 0 195 32.5t135.5 86t84 132t44.5 160t12 179.5 q0 129 -27.5 243t-79.5 203t-135.5 141t-188.5 52q-111 0 -195 -33t-135.5 -86.5t-84 -132t-44.5 -160.5t-12 -180zM479 1556q1 31 15 71.5t41 83.5t76 72t110 29q60 0 160 -49t151 -49q22 0 38 6t28 20t19 26.5t17 34.5q3 7 5 11h88q-62 -258 -248 -258q-60 0 -166 52 q-100 49 -156 49q-36 0 -60.5 -29.5t-35.5 -69.5h-82z" />
<glyph unicode="&#xd6;" horiz-adv-x="1705" d="M96 682q0 237 97 405.5t271 252t410 83.5q348 0 543 -185t195 -531q0 -237 -97 -405.5t-271 -252.5t-410 -84q-348 0 -543 185.5t-195 531.5zM403 717q0 -129 27.5 -242.5t79.5 -202.5t135.5 -140.5t188.5 -51.5q111 0 195 32.5t135.5 86t84 132t44.5 160t12 179.5 q0 129 -27.5 243t-79.5 203t-135.5 141t-188.5 52q-111 0 -195 -33t-135.5 -86.5t-84 -132t-44.5 -160.5t-12 -180zM496 1696q0 57 40 97t97 40t97 -40t40 -97t-40 -97t-97 -40t-97 40t-40 97zM936 1696q0 57 40 97t97 40t97 -40t40 -97t-40 -97t-97 -40t-97 40t-40 97z" />
<glyph unicode="&#xd7;" horiz-adv-x="1241" d="M147 168l347 350l-344 346l124 125l344 -346l347 346l125 -125l-347 -346l351 -350l-125 -125l-351 350l-346 -350z" />
<glyph unicode="&#xd8;" horiz-adv-x="1705" d="M66 41l186 170q-86 92 -121 205.5t-35 265.5q0 237 97 405.5t271 252t410 83.5q164 0 299.5 -41t223.5 -118l182 166l76 -80l-182 -168q80 -104 109.5 -215t29.5 -260q0 -237 -97 -405.5t-271 -252.5t-410 -84q-171 0 -304 43.5t-202 118.5l-185 -168zM403 717 q0 -215 52 -324l757 701q-60 115 -144 165t-194 50q-111 0 -195 -33t-135.5 -86.5t-84 -132t-44.5 -160.5t-12 -180zM496 283q70 -108 152 -155.5t186 -47.5q111 0 195 32.5t135.5 86t84 132t44.5 160t12 179.5q0 218 -45 315z" />
<glyph unicode="&#xd9;" horiz-adv-x="1593" d="M53 1319v76q252 -6 320 -6q65 0 317 6v-76l-76 -6q-69 -5 -84 -35q-14 -29 -14 -166v-508q0 -49 1 -83.5t4 -76t8.5 -70t15 -61t24 -54t34.5 -43.5t46.5 -36t60.5 -25.5t77 -16.5t94 -5q72 0 128.5 12t96.5 32t68.5 54t45.5 71t26.5 90.5t12.5 104.5t3 121v494 q0 135 -15 166q-15 30 -84 35l-76 6v76q234 -6 236 -6q35 0 73.5 1t86 2.5t73.5 2.5v-76l-75 -6q-69 -5 -84 -35q-15 -31 -15 -166v-598q0 -549 -569 -549q-282 0 -434 109t-152 288v750q0 137 -14 166q-15 30 -84 35zM494 1784q0 38 23.5 64t64.5 26q42 0 70.5 -18 t64.5 -58l264 -303h-115l-268 166q-3 2 -23.5 14.5t-26 16.5t-20 16t-19.5 21t-10 24t-5 31z" />
<glyph unicode="&#xda;" horiz-adv-x="1593" d="M53 1319v76q252 -6 320 -6q65 0 317 6v-76l-76 -6q-69 -5 -84 -35q-14 -29 -14 -166v-508q0 -49 1 -83.5t4 -76t8.5 -70t15 -61t24 -54t34.5 -43.5t46.5 -36t60.5 -25.5t77 -16.5t94 -5q72 0 128.5 12t96.5 32t68.5 54t45.5 71t26.5 90.5t12.5 104.5t3 121v494 q0 135 -15 166q-15 30 -84 35l-76 6v76q234 -6 236 -6q35 0 73.5 1t86 2.5t73.5 2.5v-76l-75 -6q-69 -5 -84 -35q-15 -31 -15 -166v-598q0 -549 -569 -549q-282 0 -434 109t-152 288v750q0 137 -14 166q-15 30 -84 35zM641 1495l264 303q36 40 64.5 58t70.5 18 q41 0 64.5 -26t23.5 -64q0 -16 -5 -31t-10 -24t-19.5 -21t-20 -16t-26 -16.5t-23.5 -14.5l-268 -166h-115z" />
<glyph unicode="&#xdb;" horiz-adv-x="1593" d="M53 1319v76q252 -6 320 -6q65 0 317 6v-76l-76 -6q-69 -5 -84 -35q-14 -29 -14 -166v-508q0 -49 1 -83.5t4 -76t8.5 -70t15 -61t24 -54t34.5 -43.5t46.5 -36t60.5 -25.5t77 -16.5t94 -5q72 0 128.5 12t96.5 32t68.5 54t45.5 71t26.5 90.5t12.5 104.5t3 121v494 q0 135 -15 166q-15 30 -84 35l-76 6v76q234 -6 236 -6q35 0 73.5 1t86 2.5t73.5 2.5v-76l-75 -6q-69 -5 -84 -35q-15 -31 -15 -166v-598q0 -549 -569 -549q-282 0 -434 109t-152 288v750q0 137 -14 166q-15 30 -84 35zM477 1495l248 358h190l252 -358h-116l-230 201 l-231 -201h-113z" />
<glyph unicode="&#xdc;" horiz-adv-x="1593" d="M53 1319v76q252 -6 320 -6q65 0 317 6v-76l-76 -6q-69 -5 -84 -35q-14 -29 -14 -166v-508q0 -49 1 -83.5t4 -76t8.5 -70t15 -61t24 -54t34.5 -43.5t46.5 -36t60.5 -25.5t77 -16.5t94 -5q72 0 128.5 12t96.5 32t68.5 54t45.5 71t26.5 90.5t12.5 104.5t3 121v494 q0 135 -15 166q-15 30 -84 35l-76 6v76q234 -6 236 -6q35 0 73.5 1t86 2.5t73.5 2.5v-76l-75 -6q-69 -5 -84 -35q-15 -31 -15 -166v-598q0 -549 -569 -549q-282 0 -434 109t-152 288v750q0 137 -14 166q-15 30 -84 35zM465 1696q0 57 40 97t97 40t97 -40t40 -97t-40 -97 t-97 -40t-97 40t-40 97zM905 1696q0 57 40 97t97 40t97.5 -40t40.5 -97t-40.5 -97t-97.5 -40t-97 40t-40 97z" />
<glyph unicode="&#xdd;" horiz-adv-x="1366" d="M31 1274v76l325 73q77 -43 129.5 -110.5t104.5 -167.5l219 -416l385 660h158v-39l-361 -535q-49 -72 -108 -205v-334q0 -136 14 -165q12 -24 84 -29l76 -6v-82q-252 6 -318 6q-67 0 -319 -6v82l76 6q72 5 84 29q14 29 14 165v285q-46 104 -90 174l-207 334 q-41 63 -107 137q-35 38 -70.5 53t-88.5 15zM592 1495l264 303q36 40 64.5 58t70.5 18q41 0 64.5 -26t23.5 -64q0 -16 -5 -31t-10 -24t-19.5 -21t-20 -16t-26 -16.5t-23.5 -14.5l-268 -166h-115z" />
<glyph unicode="&#xde;" horiz-adv-x="1251" d="M80 -6v82l76 6q72 5 84 29q14 29 14 165v836q0 137 -14 166q-15 30 -84 35l-76 6v76q252 -6 319 -6q66 0 318 6v-76l-76 -6q-69 -5 -84 -35q-14 -29 -14 -154q55 -6 168 -6q56 0 98 -2t93 -9.5t88 -20t74 -35t60 -54t37.5 -78t14.5 -104.5q0 -98 -36 -182.5t-94.5 -139 t-132 -85.5t-149.5 -31q-25 0 -47.5 2.5t-48 6.5t-31.5 5l-35 72l21 20q41 -14 114 -14q72 0 108 68t36 172q0 307 -170 307q-129 0 -168 -19v-721q-6 -124 14 -165q12 -24 84 -29l96 -6v-82q-312 6 -338 6q-67 0 -319 -6z" />
<glyph unicode="&#xdf;" horiz-adv-x="1251" d="M61 -6v76l80 4q56 3 66 35q8 27 8 96v549h-145v47l141 92v149q0 128 203 287q99 78 172.5 112t177.5 34q135 0 219 -79t84 -214q0 -94 -49 -299l-12 -54l-27 -18q-45 39 -111 39q-40 0 -70 -20t-30 -58q0 -18 6.5 -34.5t13.5 -27t23 -23.5t23.5 -17.5t27.5 -15.5t23 -13 l162 -94q110 -62 110 -191q0 -82 -22.5 -128.5t-83.5 -104.5l-93 -86q-32 -32 -57 -41q-82 -31 -162 -31q-68 0 -147 43v-14q-210 6 -246 6q-51 0 -151.5 -2.5t-133.5 -3.5zM465 203q0 -26 0.5 -38t3.5 -32t9.5 -29.5t19.5 -18t32 -9.5l60 -6l18 159l68 13l8 -111 q73 -49 133 -49q55 0 95 34.5t40 88.5q0 13 -3 26t-6.5 23t-13 22t-14.5 19.5t-19.5 19t-20.5 16.5t-25 17.5t-24.5 16t-27 16.5t-26.5 16q-43 26 -68 44t-55 47t-44.5 63.5t-14.5 75.5q0 47 11.5 85.5t37.5 72.5t50 57t67 59q69 59 147 53q15 113 15 136q0 105 -62 176 t-166 71q-72 0 -132.5 -36.5t-76.5 -102.5q-16 -70 -16 -235v-760z" />
<glyph unicode="&#xe0;" d="M82 215q0 67 22.5 125.5t71.5 91.5q89 60 256 94l180 37q0 242 -213 242q-31 0 -70 -8.5t-44 -20.5l-45 -102l-62 14v141l109 66q116 70 237 70q70 0 130 -16.5t108.5 -50.5t75 -93.5t24.5 -138.5q-1 -28 -2.5 -79.5t-2.5 -93.5t-1 -79q0 -2 6 -254q2 -40 14.5 -60.5 t41.5 -23.5l61 -6v-76q-16 0 -80.5 3t-99.5 3q-33 0 -98.5 -2.5t-88.5 -3.5l-10 16l10 127l-190 -147q-31 -25 -113 -25q-110 0 -168.5 68.5t-58.5 181.5zM209 1366q0 38 23.5 64t64.5 26q42 0 70.5 -18t64.5 -58l264 -303h-114l-269 166q-3 2 -23.5 14.5t-26 16.5t-20 16 t-19.5 21t-10 24t-5 31zM332 266q0 -61 30.5 -92t79.5 -31q43 0 96.5 31t73.5 62v241l-92 -24q-42 -12 -62.5 -19t-49.5 -22t-42.5 -32t-23.5 -46t-10 -68z" />
<glyph unicode="&#xe1;" d="M82 215q0 67 22.5 125.5t71.5 91.5q89 60 256 94l180 37q0 242 -213 242q-31 0 -70 -8.5t-44 -20.5l-45 -102l-62 14v141l109 66q116 70 237 70q70 0 130 -16.5t108.5 -50.5t75 -93.5t24.5 -138.5q-1 -28 -2.5 -79.5t-2.5 -93.5t-1 -79q0 -2 6 -254q2 -40 14.5 -60.5 t41.5 -23.5l61 -6v-76q-16 0 -80.5 3t-99.5 3q-33 0 -98.5 -2.5t-88.5 -3.5l-10 16l10 127l-190 -147q-31 -25 -113 -25q-110 0 -168.5 68.5t-58.5 181.5zM332 266q0 -61 30.5 -92t79.5 -31q43 0 96.5 31t73.5 62v241l-92 -24q-42 -12 -62.5 -19t-49.5 -22t-42.5 -32 t-23.5 -46t-10 -68zM332 1077l264 303q36 40 64.5 58t70.5 18q41 0 64.5 -26t23.5 -64q0 -16 -5 -31t-10 -24t-19.5 -21t-20 -16t-26 -16.5t-23.5 -14.5l-269 -166h-114z" />
<glyph unicode="&#xe2;" d="M82 215q0 67 22.5 125.5t71.5 91.5q89 60 256 94l180 37q0 242 -213 242q-31 0 -70 -8.5t-44 -20.5l-45 -102l-62 14v141l109 66q116 70 237 70q70 0 130 -16.5t108.5 -50.5t75 -93.5t24.5 -138.5q-1 -28 -2.5 -79.5t-2.5 -93.5t-1 -79q0 -2 6 -254q2 -40 14.5 -60.5 t41.5 -23.5l61 -6v-76q-16 0 -80.5 3t-99.5 3q-33 0 -98.5 -2.5t-88.5 -3.5l-10 16l10 127l-190 -147q-31 -25 -113 -25q-110 0 -168.5 68.5t-58.5 181.5zM168 1077l248 359h190l252 -359h-117l-229 201l-231 -201h-113zM332 266q0 -61 30.5 -92t79.5 -31q43 0 96.5 31 t73.5 62v241l-92 -24q-42 -12 -62.5 -19t-49.5 -22t-42.5 -32t-23.5 -46t-10 -68z" />
<glyph unicode="&#xe3;" d="M82 215q0 67 22.5 125.5t71.5 91.5q89 60 256 94l180 37q0 242 -213 242q-31 0 -70 -8.5t-44 -20.5l-45 -102l-62 14v141l109 66q116 70 237 70q70 0 130 -16.5t108.5 -50.5t75 -93.5t24.5 -138.5q-1 -28 -2.5 -79.5t-2.5 -93.5t-1 -79q0 -2 6 -254q2 -40 14.5 -60.5 t41.5 -23.5l61 -6v-76q-16 0 -80.5 3t-99.5 3q-33 0 -98.5 -2.5t-88.5 -3.5l-10 16l10 127l-190 -147q-31 -25 -113 -25q-110 0 -168.5 68.5t-58.5 181.5zM139 1122q1 31 15 71.5t41 83.5t76 72t110 29q60 0 160 -49t151 -49q22 0 38 6t28 20t19 26.5t17 34.5q3 7 5 11h88 q-62 -258 -248 -258q-62 0 -166 51q-102 50 -156 50q-36 0 -60.5 -29.5t-35.5 -69.5h-82zM332 266q0 -61 30.5 -92t79.5 -31q43 0 96.5 31t73.5 62v241l-92 -24q-42 -12 -62.5 -19t-49.5 -22t-42.5 -32t-23.5 -46t-10 -68z" />
<glyph unicode="&#xe4;" d="M82 215q0 67 22.5 125.5t71.5 91.5q89 60 256 94l180 37q0 242 -213 242q-31 0 -70 -8.5t-44 -20.5l-45 -102l-62 14v141l109 66q116 70 237 70q70 0 130 -16.5t108.5 -50.5t75 -93.5t24.5 -138.5q-1 -28 -2.5 -79.5t-2.5 -93.5t-1 -79q0 -2 6 -254q2 -40 14.5 -60.5 t41.5 -23.5l61 -6v-76q-16 0 -80.5 3t-99.5 3q-33 0 -98.5 -2.5t-88.5 -3.5l-10 16l10 127l-190 -147q-31 -25 -113 -25q-110 0 -168.5 68.5t-58.5 181.5zM156 1278q0 57 40 97t97 40t97 -40t40 -97t-40 -97t-97 -40t-97 40t-40 97zM332 266q0 -61 30.5 -92t79.5 -31 q43 0 96.5 31t73.5 62v241l-92 -24q-42 -12 -62.5 -19t-49.5 -22t-42.5 -32t-23.5 -46t-10 -68zM596 1278q0 57 40 97t97 40t97 -40t40 -97t-40 -97t-97 -40t-97 40t-40 97z" />
<glyph unicode="&#xe5;" d="M82 215q0 67 22.5 125.5t71.5 91.5q89 60 256 94l180 37q0 242 -213 242q-31 0 -70 -8.5t-44 -20.5l-45 -102l-62 14v141l109 66q116 70 237 70q70 0 130 -16.5t108.5 -50.5t75 -93.5t24.5 -138.5q-1 -28 -2.5 -79.5t-2.5 -93.5t-1 -79q0 -2 6 -254q2 -40 14.5 -60.5 t41.5 -23.5l61 -6v-76q-16 0 -80.5 3t-99.5 3q-33 0 -98.5 -2.5t-88.5 -3.5l-10 16l10 127l-190 -147q-31 -25 -113 -25q-110 0 -168.5 68.5t-58.5 181.5zM309 1229q0 85 60 145t145 60t145 -60t60 -145t-60 -145t-145 -60t-145 60t-60 145zM332 266q0 -61 30.5 -92 t79.5 -31q43 0 96.5 31t73.5 62v241l-92 -24q-42 -12 -62.5 -19t-49.5 -22t-42.5 -32t-23.5 -46t-10 -68zM412 1229q0 -43 29.5 -73t72.5 -30t72.5 30t29.5 73t-29.5 72.5t-72.5 29.5t-72.5 -29.5t-29.5 -72.5z" />
<glyph unicode="&#xe6;" horiz-adv-x="1593" d="M94 213q0 77 27 137.5t80 87.5q114 56 272 88l180 37q0 116 -53.5 186t-169.5 70q-76 0 -143 -49l-33 -86l-66 8v137l109 66q116 70 238 70q104 0 168.5 -23t125.5 -84q119 107 293 107q102 0 185.5 -39t136.5 -122.5t53 -199.5v-106q-147 -41 -323 -41h-269 q0 -154 85.5 -250t240.5 -96q101 0 221 71l25 -30l-45 -99q-92 -49 -164.5 -68.5t-163.5 -19.5q-277 0 -399 195l-234 -168q-13 -10 -54 -18.5t-67 -8.5q-113 0 -184.5 70t-71.5 178zM352 262q0 -119 131 -119q43 0 96.5 31t73.5 62v233l-112 -27q-38 -9 -67.5 -20.5 t-59 -32t-46 -53t-16.5 -74.5zM893 565q171 -6 172 -6t172 6q0 43 -2.5 77t-13 75t-27.5 68.5t-49 46t-76 18.5q-89 0 -132.5 -70t-43.5 -215z" />
<glyph unicode="&#xe7;" horiz-adv-x="909" d="M76 451q0 65 6 106.5t29 95.5t75.5 104t137.5 101l106 64q43 26 89.5 34.5t113.5 8.5q80 0 192 -41l15 -27q-25 -127 -41 -289h-74l-14 123q-4 40 -62 64t-114 24q-205 0 -205 -289q0 -83 18 -155t56 -133t104 -96t154 -35q79 0 167 39l19 -21l-43 -94q-124 -70 -266 -70 q-117 0 -206.5 36t-145 101.5t-83.5 153t-28 195.5zM264 -424l33 76q240 -55 240 57q0 95 -152 64l-20 16l88 197h84l-58 -131q52 12 88 12q84 0 123 -43t39 -111q0 -51 -28 -87t-74.5 -54t-91 -25.5t-91.5 -7.5q-83 0 -180 37z" />
<glyph unicode="&#xe8;" d="M86 438q0 71 6.5 124t26 110t60 104t102.5 84l96 58q77 47 168 47q177 0 288 -93.5t111 -267.5v-106q-147 -41 -323 -41h-269q0 -154 85.5 -250t240.5 -96q101 0 221 71l25 -30l-45 -99q-92 -49 -164.5 -68.5t-163.5 -19.5q-222 0 -343.5 125.5t-121.5 347.5zM209 1366 q0 38 23.5 64t64.5 26q42 0 70.5 -18t64.5 -58l264 -303h-114l-269 166q-3 2 -23.5 14.5t-26 16.5t-20 16t-19.5 21t-10 24t-5 31zM340 565q171 -6 172 -6t172 6q0 43 -2.5 77t-13 75t-27.5 68.5t-49 46t-76 18.5q-89 0 -132.5 -70t-43.5 -215z" />
<glyph unicode="&#xe9;" d="M86 438q0 71 6.5 124t26 110t60 104t102.5 84l96 58q77 47 168 47q177 0 288 -93.5t111 -267.5v-106q-147 -41 -323 -41h-269q0 -154 85.5 -250t240.5 -96q101 0 221 71l25 -30l-45 -99q-92 -49 -164.5 -68.5t-163.5 -19.5q-222 0 -343.5 125.5t-121.5 347.5zM332 1077 l264 303q36 40 64.5 58t70.5 18q41 0 64.5 -26t23.5 -64q0 -16 -5 -31t-10 -24t-19.5 -21t-20 -16t-26 -16.5t-23.5 -14.5l-269 -166h-114zM340 565q171 -6 172 -6t172 6q0 43 -2.5 77t-13 75t-27.5 68.5t-49 46t-76 18.5q-89 0 -132.5 -70t-43.5 -215z" />
<glyph unicode="&#xea;" d="M86 438q0 71 6.5 124t26 110t60 104t102.5 84l96 58q77 47 168 47q177 0 288 -93.5t111 -267.5v-106q-147 -41 -323 -41h-269q0 -154 85.5 -250t240.5 -96q101 0 221 71l25 -30l-45 -99q-92 -49 -164.5 -68.5t-163.5 -19.5q-222 0 -343.5 125.5t-121.5 347.5zM193 1077 l247 359h191l252 -359h-117l-229 201l-232 -201h-112zM340 565q171 -6 172 -6t172 6q0 43 -2.5 77t-13 75t-27.5 68.5t-49 46t-76 18.5q-89 0 -132.5 -70t-43.5 -215z" />
<glyph unicode="&#xeb;" d="M86 438q0 71 6.5 124t26 110t60 104t102.5 84l96 58q77 47 168 47q177 0 288 -93.5t111 -267.5v-106q-147 -41 -323 -41h-269q0 -154 85.5 -250t240.5 -96q101 0 221 71l25 -30l-45 -99q-92 -49 -164.5 -68.5t-163.5 -19.5q-222 0 -343.5 125.5t-121.5 347.5zM172 1278 q0 57 40 97t97 40t97 -40t40 -97t-40 -97t-97 -40t-97 40t-40 97zM340 565q171 -6 172 -6t172 6q0 43 -2.5 77t-13 75t-27.5 68.5t-49 46t-76 18.5q-89 0 -132.5 -70t-43.5 -215zM612 1278q0 57 40.5 97t97.5 40t97 -40t40 -97t-40 -97t-97 -40t-97.5 40t-40.5 97z" />
<glyph unicode="&#xec;" horiz-adv-x="681" d="M37 1366q0 38 23.5 64t64.5 26q42 0 70.5 -18t64.5 -58l264 -303h-114l-269 166q-3 2 -23.5 14.5t-26 16.5t-20 16t-19.5 21t-10 24t-5 31zM70 -6v76l71 4q57 5 66 35q8 27 8 96v448q0 91 -8.5 116t-44.5 28l-92 6v74q164 21 231 43l143 45l21 -13v-747q0 -69 8 -96 q9 -30 66 -35l71 -4v-76q-264 6 -276 6z" />
<glyph unicode="&#xed;" horiz-adv-x="681" d="M70 -6v76l71 4q57 5 66 35q8 27 8 96v448q0 91 -8.5 116t-44.5 28l-92 6v74q164 21 231 43l143 45l21 -13v-747q0 -69 8 -96q9 -30 66 -35l71 -4v-76q-264 6 -276 6zM160 1077l264 303q36 40 64.5 58t70.5 18q41 0 64.5 -26t23.5 -64q0 -16 -5 -31t-10 -24t-19.5 -21 t-20 -16t-26 -16.5t-23.5 -14.5l-269 -166h-114z" />
<glyph unicode="&#xee;" horiz-adv-x="681" d="M-4 1077l248 359h190l252 -359h-117l-229 201l-231 -201h-113zM70 -6v76l71 4q57 5 66 35q8 27 8 96v448q0 91 -8.5 116t-44.5 28l-92 6v74q164 21 231 43l143 45l21 -13v-747q0 -69 8 -96q9 -30 66 -35l71 -4v-76q-264 6 -276 6z" />
<glyph unicode="&#xef;" horiz-adv-x="681" d="M-16 1278q0 57 40 97t97 40t97 -40t40 -97t-40 -97t-97 -40t-97 40t-40 97zM70 -6v76l71 4q57 5 66 35q8 27 8 96v448q0 91 -8.5 116t-44.5 28l-92 6v74q164 21 231 43l143 45l21 -13v-747q0 -69 8 -96q9 -30 66 -35l71 -4v-76q-264 6 -276 6zM424 1278q0 57 40 97t97 40 t97 -40t40 -97t-40 -97t-97 -40t-97 40t-40 97z" />
<glyph unicode="&#xf0;" horiz-adv-x="1138" d="M82 461q0 237 128.5 370.5t352.5 133.5q54 0 113 -19q-23 100 -125 217l-272 -127l-37 78l247 115q-90 90 -194 139l82 107q180 -86 282 -166l275 127l37 -78l-238 -111q153 -142 241.5 -322.5t84.5 -389.5q-2 -124 -36 -227t-97.5 -180t-161.5 -120t-223 -43 q-153 0 -258 64.5t-153 174t-48 257.5zM360 510q0 -447 224 -447q196 0 196 379q0 41 -0.5 69.5t-5 76.5t-12.5 82t-24 73.5t-38.5 64t-57.5 41.5t-79 17q-40 0 -72 -12.5t-53 -32.5t-36 -51t-23 -59.5t-12.5 -68t-5.5 -67.5t-1 -65z" />
<glyph unicode="&#xf1;" horiz-adv-x="1251" d="M49 -6v76l72 4q56 5 65 35t9 96v448q0 90 -9 115.5t-45 28.5l-92 6v74q29 1 58 4t60 9t52.5 10.5t56.5 15t50.5 15t55 18t50.5 16.5l12 -13v-153l164 127q51 39 156 39q63 0 123 -21t98 -61q48 -50 62 -119t14 -178v-381q0 -69 8 -96q9 -30 66 -35l67 -4v-76q-18 0 -90 3 t-111 3q-19 0 -190 -6v559q0 135 -53 188q-47 47 -154 47q-60 0 -110 -46t-50 -93v-444q0 -66 9 -96t65 -35l72 -4v-76q-264 6 -277 6zM252 1122q1 31 15 71.5t41 83.5t76 72t110 29q59 0 159 -49t152 -49q10 0 18.5 1.5t15.5 3.5t13.5 6.5t11 7.5t10 10.5t8 11t8 13.5 t7 13.5t7 15t7.5 15.5h88q-62 -258 -247 -258q-62 0 -166 51q-102 50 -156 50q-36 0 -60.5 -29.5t-35.5 -69.5h-82z" />
<glyph unicode="&#xf2;" horiz-adv-x="1138" d="M82 461q0 240 129 372t373 132q233 0 354 -124.5t121 -355.5q0 -250 -132.5 -385t-385.5 -135q-153 0 -258 64.5t-153 174t-48 257.5zM266 1366q0 38 23.5 64t64.5 26q42 0 70.5 -18t64.5 -58l265 -303h-115l-268 166q-4 3 -24 15t-26 16t-20 16t-19.5 21t-10.5 24t-5 31 zM360 510q0 -447 226 -447q43 0 76.5 15.5t54 44t34 60t19.5 73.5t8 74t2 71q0 43 -0.5 72t-5 82t-12 90t-23.5 82t-38 73t-57 47t-79 19q-40 0 -72 -12.5t-53 -32.5t-36.5 -50.5t-23.5 -59.5t-13 -68t-6 -67.5t-1 -65.5z" />
<glyph unicode="&#xf3;" horiz-adv-x="1138" d="M82 461q0 240 129 372t373 132q233 0 354 -124.5t121 -355.5q0 -250 -132.5 -385t-385.5 -135q-153 0 -258 64.5t-153 174t-48 257.5zM360 510q0 -447 226 -447q43 0 76.5 15.5t54 44t34 60t19.5 73.5t8 74t2 71q0 43 -0.5 72t-5 82t-12 90t-23.5 82t-38 73t-57 47 t-79 19q-40 0 -72 -12.5t-53 -32.5t-36.5 -50.5t-23.5 -59.5t-13 -68t-6 -67.5t-1 -65.5zM389 1077l264 303q36 40 64.5 58t70.5 18q41 0 65 -26t24 -64q0 -16 -5 -31t-10.5 -24t-19.5 -21t-20 -16t-26 -16t-24 -15l-268 -166h-115z" />
<glyph unicode="&#xf4;" horiz-adv-x="1138" d="M82 461q0 240 129 372t373 132q233 0 354 -124.5t121 -355.5q0 -250 -132.5 -385t-385.5 -135q-153 0 -258 64.5t-153 174t-48 257.5zM225 1077l248 359h191l251 -359h-116l-230 201l-231 -201h-113zM360 510q0 -447 226 -447q43 0 76.5 15.5t54 44t34 60t19.5 73.5t8 74 t2 71q0 43 -0.5 72t-5 82t-12 90t-23.5 82t-38 73t-57 47t-79 19q-40 0 -72 -12.5t-53 -32.5t-36.5 -50.5t-23.5 -59.5t-13 -68t-6 -67.5t-1 -65.5z" />
<glyph unicode="&#xf5;" horiz-adv-x="1138" d="M82 461q0 240 129 372t373 132q233 0 354 -124.5t121 -355.5q0 -250 -132.5 -385t-385.5 -135q-153 0 -258 64.5t-153 174t-48 257.5zM197 1122q1 31 15 71.5t40.5 83.5t75.5 72t110 29q60 0 160 -49t152 -49q10 0 18.5 1.5t15.5 3.5t13.5 6.5t11 7.5t10 10.5t8 11 t8 13.5t7 13.5t7 15t7.5 15.5h88q-62 -258 -248 -258q-62 0 -166 51q-102 50 -155 50q-36 0 -60.5 -29.5t-35.5 -69.5h-82zM360 510q0 -447 226 -447q43 0 76.5 15.5t54 44t34 60t19.5 73.5t8 74t2 71q0 43 -0.5 72t-5 82t-12 90t-23.5 82t-38 73t-57 47t-79 19 q-40 0 -72 -12.5t-53 -32.5t-36.5 -50.5t-23.5 -59.5t-13 -68t-6 -67.5t-1 -65.5z" />
<glyph unicode="&#xf6;" horiz-adv-x="1138" d="M82 461q0 240 129 372t373 132q233 0 354 -124.5t121 -355.5q0 -250 -132.5 -385t-385.5 -135q-153 0 -258 64.5t-153 174t-48 257.5zM213 1278q0 57 40 97t97 40t97 -40t40 -97t-40 -97t-97 -40t-97 40t-40 97zM360 510q0 -447 226 -447q43 0 76.5 15.5t54 44t34 60 t19.5 73.5t8 74t2 71q0 43 -0.5 72t-5 82t-12 90t-23.5 82t-38 73t-57 47t-79 19q-40 0 -72 -12.5t-53 -32.5t-36.5 -50.5t-23.5 -59.5t-13 -68t-6 -67.5t-1 -65.5zM653 1278q0 57 40.5 97t97.5 40t97 -40t40 -97t-40 -97t-97 -40t-97.5 40t-40.5 97z" />
<glyph unicode="&#xf7;" horiz-adv-x="1241" d="M104 434v176h1033v-176h-1033zM483 137q0 57 40.5 97t97.5 40t97 -40t40 -97t-40 -97t-97 -40t-97.5 40t-40.5 97zM483 907q0 57 40.5 97t97.5 40t97 -40t40 -97t-40 -97t-97 -40t-97.5 40t-40.5 97z" />
<glyph unicode="&#xf8;" horiz-adv-x="1138" d="M47 10l129 121q-42 47 -68 136t-26 194q0 240 129 372t373 132q236 0 346 -117l114 110l50 -45l-123 -114q52 -69 70 -140.5t18 -173.5q0 -250 -132.5 -385t-385.5 -135q-188 0 -322 117l-125 -119zM360 510q0 -70 17 -186l377 358q-24 85 -67 134.5t-122 49.5 q-40 0 -72 -12.5t-53 -32.5t-36.5 -50.5t-23.5 -59.5t-13 -68t-6 -67.5t-1 -65.5zM389 244q63 -181 197 -181q43 0 76.5 15.5t54 44t34 60t19.5 73.5t8 74t2 71q0 139 -14 201z" />
<glyph unicode="&#xf9;" horiz-adv-x="1251" d="M51 803v74q166 21 232 43l143 45l20 -13v-534q0 -49 2 -80t11 -70.5t26 -62.5t49 -39t78 -16q51 0 97 29t75 75q19 31 19 80v319q0 91 -8.5 116t-44.5 28l-93 6v74q166 21 232 43l143 45l21 -13v-747q0 -69 8 -96q9 -30 65 -35l68 -4v-76q-25 1 -109.5 3.5t-117.5 2.5 q-17 0 -75 -2.5t-99 -3.5l10 170l-156 -152q-21 -21 -57.5 -34t-73.5 -13q-163 0 -241 85t-78 237v366q0 90 -9 115.5t-45 28.5zM305 1366q0 38 23.5 64t64.5 26q42 0 70.5 -18t64.5 -58l265 -303h-115l-268 166q-4 3 -24 15t-26 16t-20 16t-19.5 21t-10.5 24t-5 31z" />
<glyph unicode="&#xfa;" horiz-adv-x="1251" d="M51 803v74q166 21 232 43l143 45l20 -13v-534q0 -49 2 -80t11 -70.5t26 -62.5t49 -39t78 -16q51 0 97 29t75 75q19 31 19 80v319q0 91 -8.5 116t-44.5 28l-93 6v74q166 21 232 43l143 45l21 -13v-747q0 -69 8 -96q9 -30 65 -35l68 -4v-76q-25 1 -109.5 3.5t-117.5 2.5 q-17 0 -75 -2.5t-99 -3.5l10 170l-156 -152q-21 -21 -57.5 -34t-73.5 -13q-163 0 -241 85t-78 237v366q0 90 -9 115.5t-45 28.5zM469 1077l264 303q36 40 64.5 58t70.5 18q41 0 64.5 -26t23.5 -64q0 -16 -5 -31t-10 -24t-19.5 -21t-20 -16t-26 -16.5t-23.5 -14.5l-268 -166 h-115z" />
<glyph unicode="&#xfb;" horiz-adv-x="1251" d="M51 803v74q166 21 232 43l143 45l20 -13v-534q0 -49 2 -80t11 -70.5t26 -62.5t49 -39t78 -16q51 0 97 29t75 75q19 31 19 80v319q0 91 -8.5 116t-44.5 28l-93 6v74q166 21 232 43l143 45l21 -13v-747q0 -69 8 -96q9 -30 65 -35l68 -4v-76q-25 1 -109.5 3.5t-117.5 2.5 q-17 0 -75 -2.5t-99 -3.5l10 170l-156 -152q-21 -21 -57.5 -34t-73.5 -13q-163 0 -241 85t-78 237v366q0 90 -9 115.5t-45 28.5zM281 1077l247 359h191l252 -359h-117l-229 201l-232 -201h-112z" />
<glyph unicode="&#xfc;" horiz-adv-x="1251" d="M51 803v74q166 21 232 43l143 45l20 -13v-534q0 -49 2 -80t11 -70.5t26 -62.5t49 -39t78 -16q51 0 97 29t75 75q19 31 19 80v319q0 91 -8.5 116t-44.5 28l-93 6v74q166 21 232 43l143 45l21 -13v-747q0 -69 8 -96q9 -30 65 -35l68 -4v-76q-25 1 -109.5 3.5t-117.5 2.5 q-17 0 -75 -2.5t-99 -3.5l10 170l-156 -152q-21 -21 -57.5 -34t-73.5 -13q-163 0 -241 85t-78 237v366q0 90 -9 115.5t-45 28.5zM268 1278q0 57 40.5 97t97.5 40t97 -40t40 -97t-40 -97t-97 -40t-97.5 40t-40.5 97zM709 1278q0 57 40 97t97 40t97 -40t40 -97t-40 -97 t-97 -40t-97 40t-40 97z" />
<glyph unicode="&#xfd;" horiz-adv-x="1138" d="M20 862v78q270 -6 273 -6q40 0 85 1t100 2.5t85 2.5v-78l-71 -4q-23 -2 -38.5 -14t-15.5 -33q0 -12 3 -25t6.5 -22t12 -29.5t13.5 -32.5l172 -446l207 516q8 21 8 47q0 17 -16 27t-39 12l-68 4v78q189 -6 191 -6q1 0 190 6v-78l-53 -10q-46 -10 -84 -96l-408 -949 q-57 -130 -105 -197q-112 -155 -255 -155q-71 0 -150 35l37 195l23 8q63 -76 147 -76q55 0 103.5 54t81.5 132l47 115l-324 827q-43 110 -86 113zM455 1077l264 303q36 40 64.5 58t70.5 18q41 0 64.5 -26t23.5 -64q0 -16 -5 -31t-10 -24t-19.5 -21t-20 -16t-26 -16.5 t-23.5 -14.5l-269 -166h-114z" />
<glyph unicode="&#xfe;" horiz-adv-x="1251" d="M35 1313v73q158 17 248 44l147 45l16 -13v-678l125 101q48 39 95 59.5t118 20.5q161 0 265 -109t104 -272q0 -118 -47 -236q-48 -123 -150 -201q-12 -9 -46.5 -36t-60.5 -46t-52 -36q-101 -64 -168 -64q-63 0 -183 35v-317q0 -67 9 -97q10 -32 65 -35l92 -4v-75 q-25 0 -131 3t-166 3l-264 -6v75l72 4q56 5 65 35t9 97v1480q0 90 -9 115.5t-45 28.5zM446 217q35 -54 89.5 -83.5t119.5 -29.5q68 0 117 33.5t74.5 89t37 114t11.5 122.5q0 135 -63.5 226t-192.5 91q-57 0 -111.5 -28t-81.5 -74v-461z" />
<glyph unicode="&#xff;" horiz-adv-x="1138" d="M20 862v78q270 -6 273 -6q40 0 85 1t100 2.5t85 2.5v-78l-71 -4q-23 -2 -38.5 -14t-15.5 -33q0 -12 3 -25t6.5 -22t12 -29.5t13.5 -32.5l172 -446l207 516q8 21 8 47q0 17 -16 27t-39 12l-68 4v78q189 -6 191 -6q1 0 190 6v-78l-53 -10q-46 -10 -84 -96l-408 -949 q-57 -130 -105 -197q-112 -155 -255 -155q-71 0 -150 35l37 195l23 8q63 -76 147 -76q55 0 103.5 54t81.5 132l47 115l-324 827q-43 110 -86 113zM238 1278q0 57 40 97t97 40t97 -40t40 -97t-40 -97t-97 -40t-97 40t-40 97zM678 1278q0 57 40 97t97 40t97 -40t40 -97 t-40 -97t-97 -40t-97 40t-40 97z" />
<glyph unicode="&#x152;" horiz-adv-x="2048" d="M88 705q0 364 197.5 541t564.5 177q33 0 67.5 -3t87 -9t68.5 -8q142 -14 162 -14q97 0 448 6q190 3 299 -6l13 -15l-29 -291h-74l-16 154q-3 21 -75 30t-161 9q-133 0 -262 -6v-492q47 -4 138 -4h135q61 0 87 8t29 35l13 117h82q-1 -20 -4 -98t-3 -121t3 -122.5t4 -98.5 h-82l-13 102q-4 42 -32 59t-84 17h-135q-68 0 -138 -6v-547q129 -6 262 -6q74 0 160.5 11t89.5 23l47 193h80l-22 -324l-10 -16q-201 -15 -504 -6l-252 6q-121 0 -203 -12q-156 -23 -203 -23q-349 0 -542 195t-193 545zM395 729q0 -95 12.5 -182t44.5 -174t81.5 -150.5 t129 -103t181.5 -39.5q144 0 246 74v1063q-130 92 -250 92q-103 0 -181.5 -30t-127.5 -81.5t-80.5 -127t-43.5 -158t-12 -183.5z" />
<glyph unicode="&#x153;" horiz-adv-x="1705" d="M98 461q0 240 129 372t373 132q222 0 346 -117q149 117 316 117q76 0 142.5 -23t118.5 -67t82.5 -114t30.5 -157v-106q-147 -41 -323 -41h-269q0 -154 85.5 -250t240.5 -96q101 0 221 71l25 -30l-45 -99q-92 -49 -164.5 -68.5t-163.5 -19.5q-89 0 -179 31t-146 100 q-64 -65 -158.5 -98t-202.5 -33q-153 0 -258 64.5t-153 174t-48 257.5zM377 510q0 -447 225 -447q37 0 67 12t50 31.5t35 48.5t23 57.5t12.5 64.5t6 63.5t1.5 60.5q0 43 -0.5 72t-5 82t-12 90t-23.5 82t-38 73t-57 47t-79 19q-40 0 -72 -12.5t-53 -32.5t-36.5 -50.5 t-23.5 -59.5t-13 -68t-6 -67.5t-1 -65.5zM1032 565q171 -6 172 -6t172 6q0 43 -2.5 77t-13 75t-27.5 68.5t-49 46t-76 18.5q-89 0 -132.5 -70t-43.5 -215z" />
<glyph unicode="&#x178;" horiz-adv-x="1366" d="M31 1274v76l325 73q77 -43 129.5 -110.5t104.5 -167.5l219 -416l385 660h158v-39l-361 -535q-49 -72 -108 -205v-334q0 -136 14 -165q12 -24 84 -29l76 -6v-82q-252 6 -318 6q-67 0 -319 -6v82l76 6q72 5 84 29q14 29 14 165v285q-46 104 -90 174l-207 334 q-41 63 -107 137q-35 38 -70.5 53t-88.5 15zM391 1696q0 57 40 97t97 40t97.5 -40t40.5 -97t-40.5 -97t-97.5 -40t-97 40t-40 97zM831 1696q0 57 40.5 97t97.5 40t97 -40t40 -97t-40 -97t-97 -40t-97.5 40t-40.5 97z" />
<glyph unicode="&#x2c6;" horiz-adv-x="681" d="M-4 1036l248 359h190l252 -359h-117l-229 201l-231 -201h-113z" />
<glyph unicode="&#x2dc;" horiz-adv-x="681" d="M-33 1098q1 31 15 71.5t41 83.5t76 72t110 29q60 0 160 -49q102 -50 151 -50q10 0 18.5 1.5t15.5 3.5t14 7t11 7.5t10 10.5t8.5 11t8 13.5t7 13.5t7.5 15.5t7 15.5h88q-62 -258 -248 -258q-62 0 -166 51q-100 49 -156 49q-36 0 -60.5 -29t-35.5 -69h-82z" />
<glyph unicode="&#x2000;" horiz-adv-x="946" />
<glyph unicode="&#x2001;" horiz-adv-x="1892" />
<glyph unicode="&#x2002;" horiz-adv-x="946" />
<glyph unicode="&#x2003;" horiz-adv-x="1892" />
<glyph unicode="&#x2004;" horiz-adv-x="630" />
<glyph unicode="&#x2005;" horiz-adv-x="473" />
<glyph unicode="&#x2006;" horiz-adv-x="315" />
<glyph unicode="&#x2007;" horiz-adv-x="315" />
<glyph unicode="&#x2008;" horiz-adv-x="236" />
<glyph unicode="&#x2009;" horiz-adv-x="378" />
<glyph unicode="&#x200a;" horiz-adv-x="105" />
<glyph unicode="&#x2010;" horiz-adv-x="681" d="M33 416q9 26 25 72.5t27.5 80t16.5 56.5h529l18 -21q-51 -113 -65 -205h-535z" />
<glyph unicode="&#x2011;" horiz-adv-x="681" d="M33 416q9 26 25 72.5t27.5 80t16.5 56.5h529l18 -21q-51 -113 -65 -205h-535z" />
<glyph unicode="&#x2012;" horiz-adv-x="681" d="M33 416q9 26 25 72.5t27.5 80t16.5 56.5h529l18 -21q-51 -113 -65 -205h-535z" />
<glyph unicode="&#x2013;" d="M0 426v170h1024v-170h-1024z" />
<glyph unicode="&#x2014;" horiz-adv-x="2048" d="M0 426v170h2048v-170h-2048z" />
<glyph unicode="&#x2018;" horiz-adv-x="569" d="M59 856q40 93 123.5 240.5t163.5 271.5l135 55l29 -32q-45 -100 -90.5 -242t-61.5 -252q-150 -16 -270 -68z" />
<glyph unicode="&#x2019;" horiz-adv-x="569" d="M59 862q45 100 90.5 242t61.5 252q153 17 270 67l29 -26q-40 -93 -123.5 -240.5t-163.5 -271.5l-135 -56z" />
<glyph unicode="&#x201a;" horiz-adv-x="681" d="M115 -295q45 99 90 241.5t61 252.5q154 17 271 67l28 -26q-40 -93 -123 -241t-163 -271l-136 -56z" />
<glyph unicode="&#x201c;" d="M70 856q40 93 123 241t163 271l136 55l28 -32q-45 -99 -90 -241.5t-61 -252.5q-151 -16 -271 -68zM504 856q40 93 123.5 240.5t163.5 271.5l135 55l28 -32q-45 -99 -90 -241.5t-61 -252.5q-151 -16 -271 -68z" />
<glyph unicode="&#x201d;" d="M70 862q45 99 90 241.5t61 252.5q154 17 271 67l28 -26q-40 -93 -123.5 -240.5t-163.5 -271.5l-135 -56zM504 862q45 99 90 241.5t61 252.5q154 17 271 67l28 -26q-40 -93 -123 -241t-163 -271l-136 -56z" />
<glyph unicode="&#x201e;" d="M70 -295q45 99 90 241.5t61 252.5q154 17 271 67l28 -26q-40 -93 -123.5 -240.5t-163.5 -271.5l-135 -56zM504 -295q45 99 90 241.5t61 252.5q154 17 271 67l28 -26q-40 -93 -123 -241t-163 -271l-136 -56z" />
<glyph unicode="&#x2022;" horiz-adv-x="1241" d="M268 705q0 145 104 248.5t249 103.5t248.5 -103.5t103.5 -248.5t-103.5 -249t-248.5 -104t-249 104t-104 249z" />
<glyph unicode="&#x2026;" horiz-adv-x="2048" d="M182 131q0 65 48.5 114.5t111.5 49.5t111.5 -49t48.5 -115q0 -59 -48 -107.5t-112 -48.5t-112 46t-48 110zM864 131q0 65 48.5 114.5t111.5 49.5t111.5 -49t48.5 -115q0 -59 -48 -107.5t-112 -48.5t-112 46t-48 110zM1546 131q0 65 48.5 114.5t111.5 49.5t111.5 -49 t48.5 -115q0 -59 -48 -107.5t-112 -48.5t-112 46t-48 110z" />
<glyph unicode="&#x202f;" horiz-adv-x="378" />
<glyph unicode="&#x2039;" horiz-adv-x="796" d="M168 473v51q259 225 405 373l56 -45l-226 -354l226 -367l-56 -41q-267 272 -405 383z" />
<glyph unicode="&#x203a;" horiz-adv-x="796" d="M168 131l225 367l-225 354l55 45q140 -142 406 -373v-51q-143 -115 -406 -383z" />
<glyph unicode="&#x205f;" horiz-adv-x="473" />
<glyph unicode="&#x2122;" horiz-adv-x="2043" d="M78 1180v209h751v-209h-61q-1 83 -33.5 113t-116.5 30h-90v-635q0 -35 27 -54.5t96 -19.5v-53h-403v53q131 0 131 93v616h-90q-84 0 -116.5 -30t-33.5 -113h-61zM926 561v53q34 1 49 2.5t29.5 8.5t19 20.5t4.5 38.5v582v17v15t-0.5 11.5t-2 10t-4 7t-6.5 6t-10 3.5 t-13.5 2.5t-18.5 0.5h-31v50h270l242 -572l242 572h272v-50h-39q-23 0 -36 -3t-18.5 -14.5t-6 -20.5t-0.5 -35v-551q0 -65 15.5 -81t84.5 -20v-53h-354v53q70 2 87 18t17 81v569h-4l-293 -721h-20l-305 721h-4v-602q0 -23 5.5 -36.5t21.5 -19.5t29.5 -7.5t45.5 -2.5v-53 h-268z" />
<glyph unicode="&#xe000;" horiz-adv-x="962" d="M0 0v963h963v-963h-963z" />
<glyph unicode="&#xfb01;" horiz-adv-x="1251" d="M20 -6v76l84 4q68 3 78 35q8 27 8 96v557l-161 -10v49q96 45 161 92v88q0 123 18.5 170t94.5 111l152 127q66 55 105.5 70.5t86.5 15.5q37 0 84 -13v-198l-33 -15q-76 49 -129 49q-37 0 -62 -10.5t-38 -24t-20 -42.5t-8 -50t-1 -61v-221h228q139 0 241 31l148 45l16 -2 v-758q0 -69 8 -96q9 -30 66 -35l72 -4v-76q-264 6 -277 6l-264 -6v76l72 4q56 5 65 35q8 27 8 96v463q0 72 -18.5 102.5t-59.5 30.5h-63l-14 -39h-228v-557q0 -66 9 -96q10 -32 73 -35l72 -4v-76q-32 1 -88.5 2.5t-104 2.5t-92.5 1q-51 0 -151.5 -2.5t-137.5 -3.5zM813 1290 q0 67 44.5 111.5t109.5 44.5t109 -44.5t44 -111.5q0 -62 -45.5 -106.5t-107.5 -44.5t-108 44.5t-46 106.5z" />
<glyph unicode="&#xfb02;" horiz-adv-x="1251" d="M35 -6v76l84 4q68 3 78 35q8 27 8 96v557l-162 -10v49q99 47 162 92v88q0 87 7.5 128.5t29.5 74.5t75 78l152 127q65 54 103.5 70t76.5 16q6 0 62 -7v-75q154 21 217 41l125 41l16 -13v-1257q0 -69 8 -96q9 -30 66 -35l71 -4v-76q-264 6 -276 6q-40 0 -84 -1t-97.5 -2.5 t-82.5 -2.5v76l71 4q57 5 66 35q8 27 8 96v958q0 90 -8.5 115t-44.5 29l-55 6v-68l-31 -8q-16 23 -49 42t-64 19q-66 0 -89 -48t-23 -140v-221q83 0 247 8l9 -16l-23 -119h-233v-557q0 -69 8 -96t94 -35l51 -4v-76q-33 1 -88.5 2.5t-103 2.5t-92.5 1q-52 0 -152 -2.5 t-137 -3.5z" />
</font>
</defs>
</svg>
